<?xml version="1.0" encoding="utf-8"?>
<!-- Generator: Adobe Illustrator 25.2.1, SVG Export Plug-In . SVG Version: 6.00 Build 0)  -->
<svg version="1.1" id="Layer_1" xmlns="http://www.w3.org/2000/svg" xmlns:xlink="http://www.w3.org/1999/xlink" x="0px" y="0px"
	 viewBox="0 0 24 24" style="enable-background:new 0 0 24 24;" xml:space="preserve">
<path d="M12,22l-9-5.1v-10L12,2l9,4.9v10L12,22z M9.1,9.6c0.4-0.4,0.8-0.7,1.3-0.9s1-0.4,1.5-0.4s1,0.1,1.5,0.4s0.9,0.6,1.3,0.9
	l3.8-2.2L12,3.8L5.3,7.3L9.1,9.6z M11.2,19.9v-4.2c-0.9-0.2-1.6-0.7-2.1-1.4c-0.6-0.7-0.9-1.4-0.9-2.3c0-0.2,0-0.4,0-0.6
	s0.1-0.4,0.1-0.6L4.5,8.6V16L11.2,19.9z M12,14.2c0.6,0,1.2-0.2,1.6-0.6c0.4-0.4,0.6-1,0.6-1.6s-0.2-1.2-0.6-1.6
	c-0.4-0.4-1-0.6-1.6-0.6s-1.2,0.2-1.6,0.6s-0.6,1-0.6,1.6s0.2,1.2,0.6,1.6C10.8,14,11.4,14.2,12,14.2z M12.8,19.9l6.8-3.9V8.6
	l-3.9,2.3c0.1,0.2,0.1,0.4,0.1,0.6c0,0.2,0,0.4,0,0.6c0,0.9-0.3,1.7-0.9,2.3c-0.6,0.7-1.3,1.1-2.1,1.4V19.9z"/>
</svg>
