<?xml version="1.0" encoding="utf-8"?>
<!-- Generator: Adobe Illustrator 25.2.1, SVG Export Plug-In . SVG Version: 6.00 Build 0)  -->
<svg version="1.1" id="Layer_1" xmlns="http://www.w3.org/2000/svg" xmlns:xlink="http://www.w3.org/1999/xlink" x="0px" y="0px"
	 viewBox="0 0 24 24" style="enable-background:new 0 0 24 24;" xml:space="preserve">
<path d="M19.5,8.9l-1.1-2.3L16,5.4l2.4-1.1L19.5,2l1.1,2.3l2.4,1.1l-2.4,1.1L19.5,8.9z M21.6,16.1l-0.8-1.6l-1.6-0.8l1.6-0.8
	l0.8-1.6l0.8,1.6l1.6,0.8l-1.6,0.8L21.6,16.1z M8.5,22l-0.2-2.3c-0.2,0-0.5-0.1-0.7-0.2c-0.2-0.1-0.5-0.3-0.6-0.4l-2,0.8l-2.2-3.6
	L4.6,15c-0.1-0.3-0.1-0.5-0.1-0.8s0-0.5,0.1-0.8l-1.9-1.2l2.2-3.6l1.9,0.8c0.2-0.2,0.4-0.3,0.7-0.4S8,8.9,8.3,8.9l0.2-2.3h4.2
	L13,8.9c0.2,0,0.5,0.1,0.7,0.2c0.2,0.1,0.5,0.3,0.6,0.4l2-0.8l2.2,3.6l-1.9,1.2c0.1,0.3,0.1,0.5,0.1,0.8s0,0.5-0.1,0.8l1.9,1.2
	l-2.2,3.6l-2-0.8c-0.2,0.2-0.4,0.3-0.6,0.4c-0.3,0.1-0.5,0.2-0.7,0.2L12.7,22H8.5z M10.6,17.1c0.8,0,1.5-0.3,2.1-0.8
	c0.5-0.5,0.8-1.2,0.8-2.1c0-0.8-0.3-1.5-0.8-2.1c-0.5-0.5-1.2-0.8-2.1-0.8c-0.8,0-1.5,0.3-2.1,0.8c-0.5,0.5-0.8,1.2-0.8,2.1
	c0,0.8,0.3,1.5,0.8,2.1C9.1,16.9,9.8,17.1,10.6,17.1z M10.6,15.6c-0.4,0-0.7-0.1-1-0.4s-0.4-0.6-0.4-1c0-0.4,0.1-0.7,0.4-1
	s0.6-0.4,1-0.4c0.4,0,0.7,0.1,1,0.4s0.4,0.6,0.4,1c0,0.4-0.1,0.7-0.4,1S11,15.6,10.6,15.6z M9.8,20.5h1.7l0.2-1.9
	c0.5-0.1,0.9-0.3,1.3-0.5s0.8-0.5,1.1-0.9l1.6,0.7l0.8-1.3L15,15.6c0.2-0.4,0.3-0.8,0.3-1.3c0-0.4-0.1-0.9-0.3-1.3l1.6-1.1l-0.8-1.3
	l-1.6,0.7c-0.3-0.3-0.7-0.6-1.1-0.9c-0.4-0.2-0.8-0.4-1.3-0.5l-0.2-1.9H9.8L9.6,9.9c-0.5,0.1-0.9,0.3-1.3,0.5
	c-0.4,0.2-0.8,0.5-1.1,0.9l-1.6-0.7l-0.8,1.3L6.2,13C6.1,13.4,6,13.8,6,14.3c0,0.5,0.1,0.9,0.3,1.3l-1.6,1.1L5.5,18l1.6-0.7
	c0.3,0.4,0.7,0.6,1.1,0.9c0.4,0.2,0.8,0.4,1.3,0.5L9.8,20.5z"/>
</svg>
