<?xml version="1.0" encoding="utf-8"?>
<!-- Generator: Adobe Illustrator 25.2.1, SVG Export Plug-In . SVG Version: 6.00 Build 0)  -->
<svg version="1.1" id="Layer_1" xmlns="http://www.w3.org/2000/svg" xmlns:xlink="http://www.w3.org/1999/xlink" x="0px" y="0px"
	 viewBox="0 0 24 24" style="enable-background:new 0 0 24 24;" xml:space="preserve">
<g>
	<path d="M12,23C5.9,23,1,18.1,1,12c0-4.2,2.4-8.1,6.2-9.9c0.5-0.2,1.1,0,1.3,0.5s0,1.1-0.5,1.3C5,5.4,3,8.6,3,12c0,5,4,9,9,9
		c5,0,9-4,9-9c0-3.5-1.9-6.6-5-8.1c-0.5-0.2-0.7-0.8-0.5-1.3c0.2-0.5,0.8-0.7,1.3-0.5C20.6,3.9,23,7.7,23,12C23,18.1,18.1,23,12,23z
		"/>
</g>
<path d="M15.4,13l-2.9-7.6c-0.2-0.5-0.9-0.5-1.1,0L8.6,13c-0.1,0.3-0.1,0.7,0.1,1.1l2.8,4.7c0.2,0.4,0.8,0.4,1,0l2.8-4.7
	C15.5,13.7,15.6,13.3,15.4,13z M13.7,13.5h-3.4c-0.2,0-0.4-0.2-0.3-0.5l1.7-5.2c0.1-0.3,0.6-0.3,0.7,0L14,13
	C14.1,13.3,13.9,13.5,13.7,13.5z"/>
<g>
	<path d="M13.3,4.7c-0.2,0-0.3-0.1-0.4-0.2l-1.7-2.2v1.9c0,0.3-0.2,0.5-0.5,0.5s-0.5-0.2-0.5-0.5V0.8c0-0.2,0.1-0.4,0.3-0.5
		c0.2-0.1,0.4,0,0.6,0.2l1.7,2.2V0.8c0-0.3,0.2-0.5,0.5-0.5s0.5,0.2,0.5,0.5v3.4c0,0.2-0.1,0.4-0.3,0.5C13.4,4.7,13.4,4.7,13.3,4.7z
		"/>
</g>
</svg>
