<svg xmlns="http://www.w3.org/2000/svg" id="mdi-cloud-outline" viewBox="0 0 24 24"><path d="M6.5 20Q4.22 20 2.61 18.43Q1 16.85 1 14.58Q1 12.63 2.17 11.1Q3.35 9.57 5.25 9.15Q5.88 6.85 7.75 5.43Q9.63 4 12 4Q14.93 4 16.96 6.04Q19 8.07 19 11Q20.73 11.2 21.86 12.5Q23 13.78 23 15.5Q23 17.38 21.69 18.69Q20.38 20 18.5 20ZM6.5 18H18.5Q19.55 18 20.27 17.27Q21 16.55 21 15.5Q21 14.45 20.27 13.73Q19.55 13 18.5 13H17V11Q17 8.93 15.54 7.46Q14.08 6 12 6Q9.93 6 8.46 7.46Q7 8.93 7 11H6.5Q5.05 11 4.03 12.03Q3 13.05 3 14.5Q3 15.95 4.03 17Q5.05 18 6.5 18ZM12 12Z" /></svg>