<svg xmlns="http://www.w3.org/2000/svg" id="mdi-cloud-off-outline" viewBox="0 0 24 24"><path d="M19.8 22.6L17.15 20H6.5Q4.2 20 2.6 18.4T1 14.5Q1 12.58 2.19 11.08Q3.38 9.57 5.25 9.15Q5.33 8.95 5.4 8.76Q5.5 8.57 5.55 8.35L1.4 4.2L2.8 2.8L21.2 21.2ZM6.5 18H15.15L7.1 9.95Q7.05 10.23 7.03 10.5Q7 10.73 7 11H6.5Q5.05 11 4.03 12.03Q3 13.05 3 14.5Q3 15.95 4.03 17Q5.05 18 6.5 18ZM11.13 14ZM21.6 18.75L20.15 17.35Q20.58 17 20.79 16.54Q21 16.08 21 15.5Q21 14.45 20.27 13.73Q19.55 13 18.5 13H17V11Q17 8.93 15.54 7.46Q14.08 6 12 6Q11.33 6 10.7 6.16Q10.07 6.33 9.5 6.68L8.05 5.23Q8.93 4.63 9.91 4.31Q10.9 4 12 4Q14.93 4 16.96 6.04Q19 8.07 19 11Q20.73 11.2 21.86 12.5Q23 13.78 23 15.5Q23 16.5 22.63 17.31Q22.25 18.15 21.6 18.75ZM14.83 12.03Z" /></svg>