<?xml version="1.0" encoding="utf-8"?>
<!-- Generator: Adobe Illustrator 25.2.1, SVG Export Plug-In . SVG Version: 6.00 Build 0)  -->
<svg version="1.1" id="mdi-satellite-variant" xmlns="http://www.w3.org/2000/svg" xmlns:xlink="http://www.w3.org/1999/xlink"
	 x="0px" y="0px" viewBox="0 0 24 24" style="enable-background:new 0 0 24 24;" xml:space="preserve">
<g>
	<path d="M16.3,12.3c-0.9-0.9-1.9-1-2.8-0.6l1.7,1.7L16.3,12.3z"/>
	<path d="M15.4,8.5l2.1-2.1l-5.7-5.7L9.7,2.8l2.1,2.1l-1.4,1.4L7.6,3.5C6.9,2.8,5.8,2.8,5,3.3l8,8l1.2-1.2l-2.3-2.3l1.3-1.4
		L15.4,8.5z"/>
	<path d="M1.7,1.7L0.6,2.9l2.5,2.5C2.6,6.2,2.7,7.2,3.4,7.9l2.8,2.8l-1.4,1.4L2.7,10l-2.2,2.2l5.7,5.7l2.1-2.1l-2.1-2.2l1.4-1.4
		l2.3,2.3l1.1-1.1l0.5,0.5c-0.4,0.9-0.3,2.1,0.5,2.8l1.2-1.2l5.5,5.5l1.2-1.2L1.7,1.7z"/>
</g>
</svg>
