<?xml version="1.0" encoding="utf-8"?>
<!-- Generator: Adobe Illustrator 25.2.1, SVG Export Plug-In . SVG Version: 6.00 Build 0)  -->
<svg version="1.1" id="mdi-satellite-variant" xmlns="http://www.w3.org/2000/svg" xmlns:xlink="http://www.w3.org/1999/xlink"
	 x="0px" y="0px" viewBox="0 0 24 24" style="enable-background:new 0 0 24 24;" xml:space="preserve">
<path d="M11.6,1l5.7,5.7l-2.1,2.1L13,6.7l-1.4,1.4l2.3,2.3l-1.2,1.2l0.4,0.5c0.9-0.4,2.1-0.3,2.8,0.5l-3.5,3.5
	c-0.8-0.8-0.9-1.9-0.5-2.8l-0.5-0.4l-1.2,1.2l-2.3-2.3L6.7,13l2.1,2.1l-2.1,2.1L1,11.6l2.1-2.1l2.1,2.1l1.4-1.4L3.8,7.4
	c-0.8-0.8-0.8-2.1,0-2.8l0.7-0.7c0.8-0.8,2-0.8,2.8,0l2.8,2.8l1.4-1.4L9.5,3.1L11.6,1 M18.5,21.9c-2.6-0.2-4-3.5-2.4-5.5l1,1
	c-0.8,1.2,0,3,1.4,3.2v-1.6l2.3,2.3l-2.3,2.3V21.9z M20.5,19.6c0.8-1.2,0-3-1.4-3.2V18l-2.3-2.3l2.3-2.3v1.6c2.6,0.2,4,3.5,2.4,5.5
	L20.5,19.6z"/>
</svg>
