<?xml version="1.0" encoding="utf-8"?>
<!-- Generator: Adobe Illustrator 25.2.1, SVG Export Plug-In . SVG Version: 6.00 Build 0)  -->
<svg version="1.1" id="Layer_1" xmlns="http://www.w3.org/2000/svg" xmlns:xlink="http://www.w3.org/1999/xlink" x="0px" y="0px"
	 viewBox="0 0 24 24" style="enable-background:new 0 0 24 24;" xml:space="preserve">
<style type="text/css">
	.st0{fill-rule:evenodd;clip-rule:evenodd;}
</style>
<g>
	<path class="st0" d="M19.2,11.3c1.1,0,2,0.9,2,2s-0.9,2-2,2c-1.1,0-2-0.9-2-2S18.1,11.3,19.2,11.3L19.2,11.3z M15.3,9.6
		c-0.1,0.2-0.2,0.5-0.3,0.8c-0.2,0.5,0.1,0.6,0.6,0.4c0.4-0.2,0.8-0.5,1.2-0.7c0.2-0.1,0.3-0.3,0.3-0.4c-0.1-0.3-0.6-0.4-1-0.5
		C15.6,9.1,15.6,9.1,15.3,9.6L15.3,9.6z M4.9,12.3c0.5,0,0.9,0.4,0.9,0.9c0,0.5-0.4,0.9-0.9,0.9c-0.5,0-0.9-0.4-0.9-0.9
		S4.4,12.3,4.9,12.3L4.9,12.3z M19.2,12.3c0.5,0,0.9,0.4,0.9,0.9c0,0.5-0.4,0.9-0.9,0.9c-0.5,0-0.9-0.4-0.9-0.9S18.7,12.3,19.2,12.3
		L19.2,12.3z M9.1,11c0.5-0.6,1.1-0.9,1.8-1.3C12.5,9,13.4,9.1,15,9.1l-0.5,1.4C14.3,10.8,14,11,13.6,11H9.1L9.1,11z M4.9,11.3
		c1.1,0,2,0.9,2,2s-0.9,2-2,2s-2-0.9-2-2C2.8,12.2,3.8,11.3,4.9,11.3L4.9,11.3z M8.1,10.6c0.7-0.4,1.4-0.8,2.2-1.1
		c2.4-1,4.3-1.1,6.9-0.4c0.8,0.3,1.5,0.6,2.3,0.8c0.8,0.2,4.1,0.4,4.2,0.9l-0.8,1c0.3,0.3,0.5,0.6,0.6,1.1c0,0.3-0.1,0.6-0.3,0.8
		c-0.2,0.4-1,0.7-1.3,0.5c-0.1-0.1-0.2-0.2-0.2-0.4c0-4.5-5.5-4-5,0.5H7.1c1.8-4.6-5.8-4.6-4.4-0.2c-0.5,0.5-1.6-0.3-2.3-1.9
		C0.6,12,0.8,11.9,1,11.7c0,0,0,0,0,0c0-0.1,0.1-0.4,0.4-0.5C2.8,10.3,6.4,10.3,8.1,10.6L8.1,10.6z"/>
</g>
</svg>
