<?xml version="1.0" encoding="utf-8"?>
<!-- Generator: Adobe Illustrator 25.2.1, SVG Export Plug-In . SVG Version: 6.00 Build 0)  -->
<svg version="1.1" id="Layer_1" xmlns="http://www.w3.org/2000/svg" xmlns:xlink="http://www.w3.org/1999/xlink" x="0px" y="0px"
	 viewBox="0 0 79.2 330.5" style="enable-background:new 0 0 79.2 330.5;" xml:space="preserve">
<style type="text/css">
	.st0{fill:none;stroke:#48aaff;stroke-width:4;stroke-linecap:round;stroke-linejoin:round;}
</style>
<path class="st0" d="M42.6,7.8c-0.1,9.2-0.2,18.4-0.4,27.6c-2.5,98.9-9.5,195.8-21.4,294C7.4,225.4,1.5,122.3,1,17.4L42.6,7.8z"/>
<path class="st0" d="M1,33.3c8.9-3.4,18.5-7.2,27.8-9.2c4.5-0.9,9.1-0.9,13.6-0.1"/>
<path class="st0" d="M34.7,189.2c-0.1,5-7.3,6.5-10.7,4c-3.3-2.5-5.3-7.5-7.2-10.9c-3.9-6.9-7.7-13.9-11.6-20.9"/>
<path class="st0" d="M31.2,231.2c-7-13.1-16.3-25.1-24.1-37.7"/>
<path class="st0" d="M46.8,313.4c0.7-12.6,1.4-25.3,2.2-37.9c3.2-51.6,2.3-103.3,2.4-155V5.9L73.8,1c-0.1,7.6-0.1,15.3-0.2,22.9
	c-0.5,32.7-3,65.4-3.7,98.1c-0.7,33.7,3,67.4,5.7,101c0.9,12.8,1.8,25.6,2.5,38.5l0,0L46.8,313.4l-26,16.1"/>
<line class="st0" x1="51.5" y1="5.9" x2="42.6" y2="7.8"/>
</svg>
