<?xml version="1.0" encoding="utf-8"?>
<!-- Generator: Adobe Illustrator 25.2.1, SVG Export Plug-In . SVG Version: 6.00 Build 0)  -->
<svg version="1.1" id="Layer_1" xmlns="http://www.w3.org/2000/svg" xmlns:xlink="http://www.w3.org/1999/xlink" x="0px" y="0px"
	 viewBox="0 0 106.2 292.9" style="enable-background:new 0 0 106.2 292.9;" xml:space="preserve">
<style type="text/css">
	.st0{fill:none;stroke:#48aaff;stroke-width:4;stroke-linecap:round;stroke-linejoin:round;}
</style>
<path class="st0" d="M42.9,48.4c-0.2,78,1,155.9,0.1,233.9l-41.6,9.6c-0.3-31.5-1-63.2,0.4-94.7c3.7-64,21.8-125.8,41.6-186.4
	c0,2.4-0.2,4.5-0.2,6.9"/>
<path class="st0" d="M1.2,278.4c15.3-7,29.4-16.4,41.8-27.8"/>
<path class="st0" d="M51.3,41.1c0.3-3.5,0.6-7.7,2.3-10.9c2.3-4.2,8.1-4.5,12.3-3.4c9.2,2.3,17.8,10.1,24.3,16.7
	c6.4,6.5,11,13.7,13,22.7c0.8,4.2,3.4,11,1.1,15c-2,2.3-6.1-0.2-8.1-0.9C81.3,74.9,66,69.6,51.9,62.2C51.1,55.2,50.9,48.2,51.3,41.1
	z"/>
<path class="st0" d="M51.1,49c-2.4,0.1-7.8,1-9.3-1.8s-0.7-7.9-0.8-11c-0.1-4.9-0.6-10.3,0.4-15.1c2-9.6,14.2,1.9,17.2,5.6"/>
<path class="st0" d="M24.8,70.5c5.4-5,11.5-9.2,18.2-12.4l9,4.1v218.1l22.3-4.9c0.5-67.7,0.3-135.4,0.6-203.1"/>
<path class="st0" d="M74.6,30.9c0-10-0.1-19.9-0.2-29.9l-31,9.8"/>
<line class="st0" x1="51.9" y1="280.4" x2="43.1" y2="282.3"/>
</svg>
