<?xml version="1.0" encoding="utf-8"?>
<!-- Generator: Adobe Illustrator 25.2.1, SVG Export Plug-In . SVG Version: 6.00 Build 0)  -->
<svg version="1.1" id="Layer_1" xmlns="http://www.w3.org/2000/svg" xmlns:xlink="http://www.w3.org/1999/xlink" x="0px" y="0px"
	 viewBox="0 0 504.6 1298.3" style="enable-background:new 0 0 504.6 1298.3;" xml:space="preserve">
<style type="text/css">
	.st0{fill:none;stroke:#ADADAD;stroke-width:4;stroke-linecap:round;stroke-linejoin:round;stroke-miterlimit:10;}

		.st1{fill:none;stroke:#ADADAD;stroke-width:4;stroke-linecap:round;stroke-linejoin:round;stroke-miterlimit:10;enable-background:new    ;}
</style>
<path class="st0" d="M398.4,646.7c0.3,98.3,0.6,196.7,1,295H105.1c0.4-98.3,0.7-196.7,1-295c0-13.3-1.3-26.6-3.8-39.6
	c0.9,0.1,1.8,0,2.7-0.4c93.3-37,201.2-36.9,294.6,0c0.9,0.3,1.8,0.5,2.7,0.4C399.7,620.1,398.4,633.4,398.4,646.7z"/>
<path class="st0" d="M75.4,1149.6c6.5,25.7,13.3,51.3,20,77c1.2,5.2,2.7,10.3,4.5,15.4c6.4,17,22.9,23.8,39.5,27.7"/>
<path class="st0" d="M148,23.3c-7,0.9-11,4.5-15.1,10.2c-50,91.5-80.7,192.3-90.2,296.1"/>
<path class="st0" d="M133.7,50.8c-54.1,100.6-75.6,216.8-81.6,330"/>
<path class="st0" d="M74.6,380.8c-10.7,0.7-21.4,0.4-32-1"/>
<path class="st0" d="M400.1,1129.1c-47.4,15.4-97.9,23-147.8,25c-49.9-2-100.4-9.7-147.8-25c0.2-62.5,0.4-124.9,0.6-187.4h294.3
	C399.6,1004.2,399.8,1066.6,400.1,1129.1z"/>
<path class="st0" d="M127.4,42.3C83.8,71.2,45,108.2,18.8,153.8c1.4-28.4,15.3-53.5,38.3-70c12.4-9,25.6-16.8,37.8-26.2
	c12.7-9.7,25-18.5,39.2-25.8"/>
<path class="st0" d="M87.7,72.3c-7.3-1.4-11-0.3-9.2,8.1"/>
<path class="st0" d="M65.2,92.8c-4.4-1.2-9-1.1-13.3,0.3c-1.4,0.4-1.7,0.5-2.3,1.8c-1.3,4.8-1,10,0.1,14.8"/>
<path class="st0" d="M439.3,92.8c4.4-1.2,9-1.1,13.3,0.3c1.4,0.4,1.7,0.5,2.3,1.8c1.3,4.8,0.9,10-0.1,14.8"/>
<path class="st0" d="M416.8,72.3c7.3-1.4,11-0.3,9.2,8.1"/>
<path class="st0" d="M370.4,31.8c14.2,7.3,26.6,16.1,39.2,25.8c12.2,9.3,25.4,17.2,37.8,26.2c22.9,16.2,37,42,38.3,70
	c-26.2-45.6-65-82.6-108.6-111.5"/>
<path class="st0" d="M442.7,434.8c-1.5,10.9-4.7,21.8-7.1,32.6c-5,22.1-10.1,44.3-15.1,66.4c-5.4,23.6-10.8,47.3-16.1,70.9
	c-0.1,0.7-0.5,1.4-1.1,1.9c-1.1,0.8-2.5,0.5-3.7,0.1c-93.3-36.9-201.2-37-294.6,0c-1.2,0.4-2.6,0.7-3.7-0.1c-0.5-0.5-0.9-1.2-1-1.9
	c-5.4-23.6-10.8-47.3-16.1-70.9C79,511.7,74,489.5,69,467.4c-2.4-10.7-5.7-21.6-7.1-32.6c-3.4-25.8,7.7-55.3,27.9-72
	c32.7-26,120.3-30.8,162.5-31.3c42.4,0.5,129.9,5.3,162.5,31.3C435,379.5,446.1,409,442.7,434.8z"/>
<path class="st0" d="M252.2,12.2h103.6c1.5,0,0.7,3.9,0.7,5.1v17c0,1.6,0.9,3.9-1,3.9H148.9c-1.9,0-1-2.3-1-3.9v-17
	c0-1.2-0.9-5.1,0.7-5.1L252.2,12.2"/>
<path class="st0" d="M429.9,380.8c10.7,0.7,21.4,0.4,32-1"/>
<path class="st0" d="M370.8,50.8c54.1,100.6,75.6,216.8,81.6,330"/>
<path class="st0" d="M356.5,23.3c7,0.9,11,4.4,15.1,10.2c50,91.5,80.7,192.3,90.2,296.1"/>
<path class="st0" d="M429.1,1149.6c-6.4,25.7-13.3,51.3-20,77c-1.2,5.2-2.7,10.3-4.5,15.4c-6.4,17-22.9,23.8-39.5,27.7"/>
<path class="st0" d="M494.7,1051.2c-5.1,8.8-9.2,18.2-12.3,27.9c-9.8,32.1-15.8,65.3-22.4,98.2c-5.2,25.6-9.8,53.7-31.7,70.8
	c-33.8,24.6-132.7,31.3-176.1,33.1c-43.5-1.8-142.2-8.5-176.1-33.1c-21.9-17.1-26.5-45.2-31.7-70.8c-6.6-32.9-12.5-66.1-22.4-98.2
	c-3-9.7-7.2-19.1-12.3-27.9"/>
<path class="st0" d="M384,56.3c-6.6-2.9-13.2-5.9-20.2-7.7c-7.1-1.6-14.4-2.7-21.7-3.1c-29.9-1.9-59.9-1.6-89.9-1.8
	c-29.9,0.3-60-0.1-89.8,1.8c-7.3,0.4-14.5,1.5-21.7,3.1c-7,1.8-13.6,4.8-20.2,7.7"/>
<path class="st0" d="M407.4,1233.2c-48.2,23.4-102,32.4-155.2,34.6c-53.1-2.2-107-11.3-155.2-34.6"/>
<path class="st0" d="M458,113.8c6.4,99.2,3.4,198.6,4.2,297.9h0c0.3,8.5-0.5,17.8-3.5,25.8l0.2,0.4l31-9.8
	c-0.5-56.3-1.6-112.7,2.5-168.9c1.9-31.1,1.5-62.4,0.1-93.5c-1.3-29.1-8.3-58.4-26.7-81.7c-7.6-9.6-17.2-15.8-27.2-22.8
	c-15.5-10.8-31-21.6-46.5-32.5c-10.8-7.6-22.4-16.5-34.9-21C348.6,4.8,338.7,6,329.7,6h-77.5l0,0h-78c-8.9,0-18.7-1.2-27.2,2
	c-12.5,4.6-23.9,13.4-34.7,20.9C96.7,39.8,81.1,50.7,65.5,61.6c-9.9,6.9-19.5,13.1-27,22.8c-18.1,23.4-25.1,52.3-26.4,81.4
	c-1.4,31.1-1.8,62.4,0.1,93.5c4.1,56.2,3.1,112.5,2.5,168.9l31.1,9.4c-3-8-3.8-17.3-3.5-25.8h0c0.7-99.3-2.3-198.7,4.2-297.9"/>
<path class="st0" d="M444.6,1202.7c3.2-31.1-14.3-63.4-44.5-73.6c6-2.7,11.2-7.1,14.8-12.6c14.4-23.7,20.1-56.3,21.7-83.7l0.2-1.8
	l26-16.1l31.3-51.9l0,0c2.8,49,3.1,98.3-7.7,146.3c-3.7,15.4-8.8,30.5-13,45.8c-4.5,16.9-7.9,34.1-11.7,51.2
	c-4.6,20.7-8.8,42.2-27.3,55c-38.2,25.6-135,30.8-182.2,31.7c-47.1-1-144-6.2-182.2-31.7c-18.5-12.8-22.7-34.3-27.3-55
	c-3.8-17.1-7.2-34.3-11.7-51.2c-4.1-15.3-9.2-30.4-13-45.8c-10.8-47.9-10.4-97.3-7.7-146.2l31.4,52.1l26,16.3l0.2,1.4
	c1.7,27.5,7.2,59.9,21.7,83.7c3.7,5.5,8.8,9.9,14.9,12.6c-30.3,10.2-47.7,42.6-44.6,73.6"/>
<path class="st0" d="M36.5,237.2h37.3c7.4,0,13.4,6,13.4,13.4v131.3c0,7.4-6,13.4-13.4,13.4H36.5c-7.4,0-13.4-6-13.4-13.4V250.6
	C23.1,243.2,29.1,237.2,36.5,237.2z"/>
<line class="st0" x1="81.6" y1="381.9" x2="87.2" y2="381.9"/>
<line class="st0" x1="81.1" y1="372.5" x2="87.2" y2="372.5"/>
<line class="st0" x1="80.6" y1="363.1" x2="87.2" y2="363.1"/>
<line class="st0" x1="80" y1="353.8" x2="87.2" y2="353.8"/>
<line class="st0" x1="79.4" y1="344.4" x2="87.2" y2="344.4"/>
<line class="st0" x1="78.7" y1="335" x2="87.2" y2="335"/>
<line class="st0" x1="78" y1="325.6" x2="87.2" y2="325.6"/>
<line class="st0" x1="77.2" y1="316.3" x2="87.2" y2="316.3"/>
<line class="st0" x1="81.6" y1="250.6" x2="87.2" y2="250.6"/>
<line class="st0" x1="81.1" y1="260" x2="87.2" y2="260"/>
<line class="st0" x1="80.6" y1="269.4" x2="87.2" y2="269.4"/>
<line class="st0" x1="80" y1="278.7" x2="87.2" y2="278.7"/>
<line class="st0" x1="79.4" y1="288.1" x2="87.2" y2="288.1"/>
<line class="st0" x1="78.7" y1="297.5" x2="87.2" y2="297.5"/>
<line class="st0" x1="78" y1="306.9" x2="87.2" y2="306.9"/>
<line class="st0" x1="23.1" y1="381.9" x2="28.8" y2="381.9"/>
<line class="st0" x1="23.1" y1="372.5" x2="29.2" y2="372.5"/>
<line class="st0" x1="23.1" y1="363.1" x2="29.8" y2="363.1"/>
<line class="st0" x1="23.1" y1="353.8" x2="30.4" y2="353.8"/>
<line class="st0" x1="23.1" y1="344.4" x2="31" y2="344.4"/>
<line class="st0" x1="23.1" y1="335" x2="31.7" y2="335"/>
<line class="st0" x1="23.1" y1="325.6" x2="32.4" y2="325.6"/>
<line class="st0" x1="23.1" y1="316.3" x2="33.2" y2="316.3"/>
<line class="st0" x1="23.1" y1="250.6" x2="28.8" y2="250.6"/>
<line class="st0" x1="23.1" y1="260" x2="29.2" y2="260"/>
<line class="st0" x1="23.1" y1="269.4" x2="29.8" y2="269.4"/>
<line class="st0" x1="23.1" y1="278.7" x2="30.4" y2="278.7"/>
<line class="st0" x1="23.1" y1="288.1" x2="31" y2="288.1"/>
<line class="st0" x1="23.1" y1="297.5" x2="31.7" y2="297.5"/>
<line class="st0" x1="23.1" y1="306.9" x2="32.4" y2="306.9"/>
<path class="st0" d="M430.7,237.2H468c7.4,0,13.4,6,13.4,13.4v131.3c0,7.4-6,13.4-13.4,13.4h-37.3c-7.4,0-13.4-6-13.4-13.4V250.6
	C417.3,243.2,423.3,237.2,430.7,237.2z"/>
<line class="st0" x1="475.8" y1="381.9" x2="481.4" y2="381.9"/>
<line class="st0" x1="475.3" y1="372.5" x2="481.4" y2="372.5"/>
<line class="st0" x1="474.7" y1="363.1" x2="481.4" y2="363.1"/>
<line class="st0" x1="474.2" y1="353.8" x2="481.4" y2="353.8"/>
<line class="st0" x1="473.5" y1="344.4" x2="481.4" y2="344.4"/>
<line class="st0" x1="472.8" y1="335" x2="481.4" y2="335"/>
<line class="st0" x1="472.1" y1="325.6" x2="481.4" y2="325.6"/>
<line class="st0" x1="471.3" y1="316.3" x2="481.4" y2="316.3"/>
<line class="st0" x1="475.8" y1="250.6" x2="481.4" y2="250.6"/>
<line class="st0" x1="475.3" y1="260" x2="481.4" y2="260"/>
<line class="st0" x1="474.7" y1="269.4" x2="481.4" y2="269.4"/>
<line class="st0" x1="474.2" y1="278.7" x2="481.4" y2="278.7"/>
<line class="st0" x1="473.5" y1="288.1" x2="481.4" y2="288.1"/>
<line class="st0" x1="472.8" y1="297.5" x2="481.4" y2="297.5"/>
<line class="st0" x1="472.1" y1="306.9" x2="481.4" y2="306.9"/>
<line class="st0" x1="417.3" y1="381.9" x2="422.9" y2="381.9"/>
<line class="st0" x1="417.3" y1="372.5" x2="423.4" y2="372.5"/>
<line class="st0" x1="417.3" y1="363.1" x2="423.9" y2="363.1"/>
<line class="st0" x1="417.3" y1="353.8" x2="424.5" y2="353.8"/>
<line class="st0" x1="417.3" y1="344.4" x2="425.1" y2="344.4"/>
<line class="st0" x1="417.3" y1="335" x2="425.8" y2="335"/>
<line class="st0" x1="417.3" y1="325.6" x2="426.5" y2="325.6"/>
<line class="st0" x1="417.3" y1="316.3" x2="427.4" y2="316.3"/>
<line class="st0" x1="417.3" y1="250.6" x2="422.9" y2="250.6"/>
<line class="st0" x1="417.3" y1="260" x2="423.4" y2="260"/>
<line class="st0" x1="417.3" y1="269.4" x2="423.9" y2="269.4"/>
<line class="st0" x1="417.3" y1="278.7" x2="424.5" y2="278.7"/>
<line class="st0" x1="417.3" y1="288.1" x2="425.1" y2="288.1"/>
<line class="st0" x1="417.3" y1="297.5" x2="425.8" y2="297.5"/>
<line class="st0" x1="417.3" y1="306.9" x2="426.5" y2="306.9"/>
<path class="st0" d="M36.5,910.2h37.3c7.4,0,13.4,6,13.4,13.4v131.3c0,7.4-6,13.4-13.4,13.4H36.5c-7.4,0-13.4-6-13.4-13.4V923.6
	C23.1,916.2,29.1,910.2,36.5,910.2z"/>
<line class="st0" x1="81.6" y1="1054.9" x2="87.2" y2="1054.9"/>
<line class="st0" x1="81.1" y1="1045.5" x2="87.2" y2="1045.5"/>
<line class="st0" x1="80.6" y1="1036.1" x2="87.2" y2="1036.1"/>
<line class="st0" x1="80" y1="1026.8" x2="87.2" y2="1026.8"/>
<line class="st0" x1="79.4" y1="1017.4" x2="87.2" y2="1017.4"/>
<line class="st0" x1="78.7" y1="1008" x2="87.2" y2="1008"/>
<line class="st0" x1="78" y1="998.6" x2="87.2" y2="998.6"/>
<line class="st0" x1="77.2" y1="989.2" x2="87.2" y2="989.2"/>
<line class="st0" x1="81.6" y1="923.6" x2="87.2" y2="923.6"/>
<line class="st1" x1="81.1" y1="933" x2="87.2" y2="933"/>
<line class="st0" x1="80.6" y1="942.4" x2="87.2" y2="942.4"/>
<line class="st0" x1="80" y1="951.7" x2="87.2" y2="951.7"/>
<line class="st0" x1="79.4" y1="961.1" x2="87.2" y2="961.1"/>
<line class="st0" x1="78.7" y1="970.5" x2="87.2" y2="970.5"/>
<line class="st0" x1="78" y1="979.9" x2="87.2" y2="979.9"/>
<line class="st0" x1="23.1" y1="1054.9" x2="28.8" y2="1054.9"/>
<line class="st0" x1="23.1" y1="1045.5" x2="29.2" y2="1045.5"/>
<line class="st0" x1="23.1" y1="1036.1" x2="29.8" y2="1036.1"/>
<line class="st0" x1="23.1" y1="1026.8" x2="30.4" y2="1026.8"/>
<line class="st0" x1="23.1" y1="1017.4" x2="31" y2="1017.4"/>
<line class="st0" x1="23.1" y1="1008" x2="31.7" y2="1008"/>
<line class="st0" x1="23.1" y1="998.6" x2="32.4" y2="998.6"/>
<line class="st0" x1="23.1" y1="989.2" x2="33.2" y2="989.2"/>
<line class="st0" x1="23.1" y1="923.6" x2="28.8" y2="923.6"/>
<line class="st0" x1="23.1" y1="933" x2="29.2" y2="933"/>
<line class="st0" x1="23.1" y1="942.4" x2="29.8" y2="942.4"/>
<line class="st0" x1="23.1" y1="951.7" x2="30.4" y2="951.7"/>
<line class="st0" x1="23.1" y1="961.1" x2="31" y2="961.1"/>
<line class="st0" x1="23.1" y1="970.5" x2="31.7" y2="970.5"/>
<line class="st0" x1="23.1" y1="979.9" x2="32.4" y2="979.9"/>
<path class="st0" d="M430.7,910.2H468c7.4,0,13.4,6,13.4,13.4v131.3c0,7.4-6,13.4-13.4,13.4h-37.3c-7.4,0-13.4-6-13.4-13.4V923.6
	C417.3,916.2,423.3,910.2,430.7,910.2z"/>
<line class="st0" x1="475.8" y1="1054.9" x2="481.4" y2="1054.9"/>
<line class="st0" x1="475.3" y1="1045.5" x2="481.4" y2="1045.5"/>
<line class="st0" x1="474.7" y1="1036.1" x2="481.4" y2="1036.1"/>
<line class="st0" x1="474.2" y1="1026.8" x2="481.4" y2="1026.8"/>
<line class="st0" x1="473.5" y1="1017.4" x2="481.4" y2="1017.4"/>
<line class="st0" x1="472.8" y1="1008" x2="481.4" y2="1008"/>
<line class="st0" x1="472.1" y1="998.6" x2="481.4" y2="998.6"/>
<line class="st0" x1="471.3" y1="989.2" x2="481.4" y2="989.2"/>
<line class="st0" x1="475.8" y1="923.6" x2="481.4" y2="923.6"/>
<line class="st0" x1="475.3" y1="933" x2="481.4" y2="933"/>
<line class="st0" x1="474.7" y1="942.4" x2="481.4" y2="942.4"/>
<line class="st0" x1="474.2" y1="951.7" x2="481.4" y2="951.7"/>
<line class="st0" x1="473.5" y1="961.1" x2="481.4" y2="961.1"/>
<line class="st0" x1="472.8" y1="970.5" x2="481.4" y2="970.5"/>
<line class="st0" x1="472.1" y1="979.9" x2="481.4" y2="979.9"/>
<line class="st0" x1="417.3" y1="1054.9" x2="422.9" y2="1054.9"/>
<line class="st0" x1="417.3" y1="1045.5" x2="423.4" y2="1045.5"/>
<line class="st0" x1="417.3" y1="1036.1" x2="423.9" y2="1036.1"/>
<line class="st0" x1="417.3" y1="1026.8" x2="424.5" y2="1026.8"/>
<line class="st0" x1="417.3" y1="1017.4" x2="425.1" y2="1017.4"/>
<line class="st0" x1="417.3" y1="1008" x2="425.8" y2="1008"/>
<line class="st0" x1="417.3" y1="998.6" x2="426.5" y2="998.6"/>
<line class="st0" x1="417.3" y1="989.2" x2="427.4" y2="989.2"/>
<line class="st0" x1="417.3" y1="923.6" x2="422.9" y2="923.6"/>
<line class="st0" x1="417.3" y1="933" x2="423.4" y2="933"/>
<line class="st0" x1="417.3" y1="942.4" x2="423.9" y2="942.4"/>
<line class="st0" x1="417.3" y1="951.7" x2="424.5" y2="951.7"/>
<line class="st0" x1="417.3" y1="961.1" x2="425.1" y2="961.1"/>
<line class="st0" x1="417.3" y1="970.5" x2="425.8" y2="970.5"/>
<line class="st0" x1="417.3" y1="979.9" x2="426.5" y2="979.9"/>
<path class="st0" d="M345.7,1238.4H171.2c-7.9,0-15.6-3.1-21.3-8.6l-21.4-20.7c-6-5.8-9.3-13.7-9.3-22v-32.3
	c0-5.7,1.6-11.3,4.6-16.2l27.4-44.1c5.6-9,15.4-14.5,26-14.5h162c10.6,0,20.4,5.5,26,14.5l27.4,44.1c3,4.9,4.6,10.4,4.6,16.2v32.8
	c0,8.3-3.4,16.3-9.3,22l-20.8,20.1C361.3,1235.3,353.7,1238.4,345.7,1238.4z"/>
<path class="st0" d="M204.1,1207.4c-3.6,0-6.5-2.9-6.5-6.5V1106c0-3.6,2.9-6.5,6.6-6.5c3.6,0,6.5,2.9,6.5,6.5v94.8
	C210.7,1204.4,207.7,1207.4,204.1,1207.4z"/>
<path class="st0" d="M235.4,1207.4c-3.6,0-6.5-2.9-6.5-6.5V1106c0-3.6,2.9-6.5,6.6-6.5c3.6,0,6.5,2.9,6.5,6.5v94.8
	C241.9,1204.4,239,1207.4,235.4,1207.4z"/>
<path class="st0" d="M169,1207.4c-3.6,0-6.5-2.9-6.5-6.5V1106c0-3.6,2.9-6.5,6.6-6.5c3.6,0,6.5,2.9,6.5,6.5v94.8
	C175.5,1204.4,172.6,1207.4,169,1207.4z"/>
<path class="st0" d="M346.4,1139.9c0-6.2-2.1-12.3-5.9-17.2V1106c-0.3-8.7-12.8-8.7-13.1,0v7.2c-5.9-2-12.3-2.1-18.2-0.1v-7.1
	c-0.3-8.7-12.8-8.7-13.1,0v16.1c-8.3,9.8-8.3,25.7,0,35.5v43.2c0,3.6,2.9,6.5,6.6,6.5c3.6,0,6.5-2.9,6.5-6.5v-34.1
	c5.9,1.9,12.3,1.9,18.2-0.1v34.3c0,3.6,2.9,6.5,6.6,6.5c3.6,0,6.5-2.9,6.5-6.5v-43.7C344.4,1152.2,346.4,1146.1,346.4,1139.9z"/>
<path class="st0" d="M334.8,1139.9c0,9.2-7.4,16.6-16.6,16.6h0c-22.1-0.9-22.1-32.4,0-33.3C327.4,1123.3,334.8,1130.7,334.8,1139.9z
	"/>
<path class="st1" d="M383.8,1124.5l26.2-26.2c3.6-3.6,8.4-5.6,13.5-5.6h66.2l-2.5,13h-56.7c-5.1,0-9.9,2-13.5,5.6l-25.5,25.5
	L383.8,1124.5z"/>
<path class="st0" d="M458.9,437.9c-19.8,60.6-37.8,122.4-41.6,186.3c-1.4,31.5-0.7,63.2-0.4,94.7c0.5,104.9,6.4,208,19.9,312.1
	l26-16.1c-3,54.1-5.8,108.3-13.6,161.9c-3.7,23.4-7,47.8-18,69"/>
<path class="st0" d="M45.6,437.9c19.8,60.6,37.8,122.4,41.6,186.3c1.4,31.5,0.7,63.2,0.4,94.7c-0.5,104.9-6.4,208-19.9,312.1
	l-25.9-15.8c3,54,5.7,108.1,13.6,161.6c3.7,23.4,7,47.8,18.1,69"/>
</svg>
