<svg xmlns="http://www.w3.org/2000/svg" viewBox="0 0 71.42049 91.63495"><defs><style>.a{fill:none;stroke:#a6a6a6;stroke-miterlimit:10;stroke-width:3px;}</style></defs><path class="a" d="M2.6963,26.12815H68.72416A11.17258,11.17258,0,0,1,79.89674,37.30072V54.33423A11.17258,11.17258,0,0,1,68.72416,65.50681H2.6963A11.17255,11.17255,0,0,1-8.47625,54.33426V37.30069A11.17255,11.17255,0,0,1,2.6963,26.12815Z" transform="translate(-21.5157 55.80017) rotate(-61.96237)"/><path class="a" d="M49.35041,20.45782a2.91475,2.91475,0,1,1,3.90085-1.18976A2.91472,2.91472,0,0,1,49.35041,20.45782Z"/><path class="a" d="M43.38837,31.65307a2.91475,2.91475,0,1,1,3.90085-1.18976A2.91471,2.91471,0,0,1,43.38837,31.65307Z"/><path class="a" d="M37.42631,42.84832a2.91476,2.91476,0,1,1,3.89959-1.18939A2.91476,2.91476,0,0,1,37.42631,42.84832Z"/><path class="a" d="M31.46427,54.04357a2.91476,2.91476,0,1,1,3.8996-1.18939A2.91476,2.91476,0,0,1,31.46427,54.04357Z"/><path class="a" d="M25.5022,65.23876a2.91476,2.91476,0,1,1,3.8996-1.18939A2.91475,2.91475,0,0,1,25.5022,65.23876Z"/><path class="a" d="M19.5402,76.434a2.91476,2.91476,0,1,1,3.89959-1.18939A2.91476,2.91476,0,0,1,19.5402,76.434Z"/><path class="a" d="M32.87678,16.36956c.23886-.48608.5469-1.18378,1.21649-.852l4.81418,2.56378c.64968.37787.24362,1.0091-.02814,1.48493a.67509.67509,0,0,1-.91055.27777l-4.81421-2.56384A.67515.67515,0,0,1,32.87678,16.36956Z"/><path class="a" d="M9.02857,61.15051c.23886-.486.54691-1.18378,1.21649-.852l4.81418,2.56378c.64969.37787.24362,1.00909-.02814,1.48492a.67508.67508,0,0,1-.91055.27777L9.30634,62.06121A.67517.67517,0,0,1,9.02857,61.15051Z"/></svg>