<svg xmlns="http://www.w3.org/2000/svg" viewBox="0 0 176.85912 208.14929"><defs><style>.a{fill:none;stroke:#a6a6a6;stroke-miterlimit:10;stroke-width:3px;}</style></defs><path class="a" d="M75.18362,38.85278c-3.05392-.08557-3.053-6.96362.00012-7.04828C78.23754,31.89014,78.2366,38.76819,75.18362,38.85278Z"/><path class="a" d="M75.18362,42.76849c-6.13025-.26977-6.12753-14.61053.00015-14.87793C81.31387,28.16034,81.31115,42.5011,75.18362,42.76849Z"/><path class="a" d="M75.18362,27.89056c16.44019.402,16.428,14.47962,0,14.87793"/><path class="a" d="M75.18362,55.22125c-3.05392-.08557-3.053-6.96362.00012-7.04828C78.23754,48.25861,78.2366,55.13666,75.18362,55.22125Z"/><path class="a" d="M75.18362,59.137c-6.13025-.26977-6.12753-14.61053.00015-14.87793C81.31387,44.52887,81.31115,58.86957,75.18362,59.137Z"/><path class="a" d="M75.18362,44.259c16.44019.402,16.428,14.47962,0,14.87793"/><path class="a" d="M75.18362,79.36884c-3.05392-.08558-3.053-6.96363.00012-7.04828C78.23754,72.40613,78.2366,79.28418,75.18362,79.36884Z"/><path class="a" d="M75.18362,83.28448c-6.13025-.26977-6.12753-14.61053.00015-14.87792C81.31387,68.67633,81.31115,83.01709,75.18362,83.28448Z"/><path class="a" d="M75.18362,68.40656c16.44019.402,16.428,14.47967,0,14.87792"/><path class="a" d="M75.18362,95.7373c-3.05392-.08557-3.053-6.96362.00012-7.04827C78.23754,88.7746,78.2366,95.65265,75.18362,95.7373Z"/><path class="a" d="M75.18362,99.653c-6.13025-.26977-6.12753-14.61053.00015-14.87793C81.31387,85.04486,81.31115,99.38556,75.18362,99.653Z"/><path class="a" d="M75.18362,84.775c16.44019.402,16.428,14.47968,0,14.87793"/><path class="a" d="M75.18362,119.34827c-3.05392-.08557-3.053-6.96363.00012-7.04828C78.23754,112.38556,78.2366,119.26361,75.18362,119.34827Z"/><path class="a" d="M75.18362,123.26392c-6.13025-.26978-6.12753-14.61054.00015-14.87793C81.31387,108.65582,81.31115,122.99652,75.18362,123.26392Z"/><path class="a" d="M75.18362,108.386c16.44019.402,16.428,14.47967,0,14.87793"/><path class="a" d="M75.18362,135.71674c-3.05392-.08558-3.053-6.96363.00012-7.04828C78.23754,128.754,78.2366,135.63208,75.18362,135.71674Z"/><path class="a" d="M75.18362,139.63239c-6.13025-.26978-6.12753-14.61054.00015-14.87793C81.31387,125.02429,81.31115,139.365,75.18362,139.63239Z"/><path class="a" d="M75.18362,124.75446c16.44019.402,16.428,14.47967,0,14.87793"/><path class="a" d="M75.18362,159.65759c-3.05392-.08557-3.053-6.96362.00012-7.04828C78.23754,152.695,78.2366,159.573,75.18362,159.65759Z"/><path class="a" d="M75.18362,163.57336c-6.13025-.26977-6.12753-14.61053.00015-14.87793C81.31387,148.96515,81.31115,163.30591,75.18362,163.57336Z"/><path class="a" d="M75.18362,148.69543c16.44019.402,16.428,14.47956,0,14.87793"/><path class="a" d="M75.18362,176.02612c-3.05392-.08557-3.053-6.96362.00012-7.04828C78.23754,169.06342,78.2366,175.94147,75.18362,176.02612Z"/><path class="a" d="M75.18362,179.94177c-6.13025-.26977-6.12753-14.61053.00015-14.87793C81.31387,165.33368,81.31115,179.67438,75.18362,179.94177Z"/><path class="a" d="M75.18362,165.06384c16.44019.402,16.428,14.47962,0,14.87793"/><path class="a" d="M101.6755,38.85278c3.05393-.08557,3.053-6.96362-.00012-7.04828C98.62155,31.89014,98.62252,38.76819,101.6755,38.85278Z"/><path class="a" d="M101.6755,42.76849c6.13025-.26977,6.12754-14.61053-.00015-14.87793C95.54522,28.16034,95.548,42.5011,101.6755,42.76849Z"/><path class="a" d="M101.6755,27.89056c-16.44021.402-16.428,14.47962,0,14.87793"/><path class="a" d="M101.6755,55.22125c3.05393-.08557,3.053-6.96362-.00012-7.04828C98.62155,48.25861,98.62252,55.13666,101.6755,55.22125Z"/><path class="a" d="M101.6755,59.137c6.13025-.26977,6.12754-14.61053-.00015-14.87793C95.54522,44.52887,95.548,58.86957,101.6755,59.137Z"/><path class="a" d="M101.6755,44.259c-16.44021.402-16.428,14.47962,0,14.87793"/><path class="a" d="M101.6755,79.36884c3.05393-.08558,3.053-6.96363-.00012-7.04828C98.62155,72.40613,98.62252,79.28418,101.6755,79.36884Z"/><path class="a" d="M101.6755,83.28448c6.13025-.26977,6.12754-14.61053-.00015-14.87792C95.54522,68.67633,95.548,83.01709,101.6755,83.28448Z"/><path class="a" d="M101.6755,68.40656c-16.44021.402-16.428,14.47967,0,14.87792"/><path class="a" d="M101.6755,95.7373c3.05393-.08557,3.053-6.96362-.00012-7.04827C98.62155,88.7746,98.62252,95.65265,101.6755,95.7373Z"/><path class="a" d="M101.6755,99.653c6.13025-.26977,6.12754-14.61053-.00015-14.87793C95.54522,85.04486,95.548,99.38556,101.6755,99.653Z"/><path class="a" d="M101.6755,84.775c-16.44021.402-16.428,14.47968,0,14.87793"/><path class="a" d="M101.6755,119.34827c3.05393-.08557,3.053-6.96363-.00012-7.04828C98.62155,112.38556,98.62252,119.26361,101.6755,119.34827Z"/><path class="a" d="M101.6755,123.26392c6.13025-.26978,6.12754-14.61054-.00015-14.87793C95.54522,108.65582,95.548,122.99652,101.6755,123.26392Z"/><path class="a" d="M101.6755,108.386c-16.44021.402-16.428,14.47967,0,14.87793"/><path class="a" d="M101.6755,135.71674c3.05393-.08558,3.053-6.96363-.00012-7.04828C98.62155,128.754,98.62252,135.63208,101.6755,135.71674Z"/><path class="a" d="M101.6755,139.63239c6.13025-.26978,6.12754-14.61054-.00015-14.87793C95.54522,125.02429,95.548,139.365,101.6755,139.63239Z"/><path class="a" d="M101.6755,124.75446c-16.44021.402-16.428,14.47967,0,14.87793"/><path class="a" d="M101.6755,159.65759c3.05393-.08557,3.053-6.96362-.00012-7.04828C98.62155,152.695,98.62252,159.573,101.6755,159.65759Z"/><path class="a" d="M101.6755,163.57336c6.13025-.26977,6.12754-14.61053-.00015-14.87793C95.54522,148.96515,95.548,163.30591,101.6755,163.57336Z"/><path class="a" d="M101.6755,148.69543c-16.44021.402-16.428,14.47956,0,14.87793"/><path class="a" d="M101.6755,176.02612c3.05393-.08557,3.053-6.96362-.00012-7.04828C98.62155,169.06342,98.62252,175.94147,101.6755,176.02612Z"/><path class="a" d="M101.6755,179.94177c6.13025-.26977,6.12754-14.61053-.00015-14.87793C95.54522,165.33368,95.548,179.67438,101.6755,179.94177Z"/><path class="a" d="M101.6755,165.06384c-16.44021.402-16.428,14.47962,0,14.87793"/><path class="a" d="M88.57367,45.40881c-2.33564-.04071-2.33524-4.19256.00009-4.23278C90.9093,41.21667,90.9089,45.36853,88.57367,45.40881Z"/><path class="a" d="M88.57367,85.66125c-2.33564-.04071-2.33524-4.19256.00009-4.23278C90.9093,81.46918,90.9089,85.621,88.57367,85.66125Z"/><path class="a" d="M88.57367,125.91376c-2.33564-.04071-2.33524-4.19257.00009-4.23279C90.9093,121.72168,90.9089,125.87354,88.57367,125.91376Z"/><path class="a" d="M88.57367,166.16626c-2.33564-.04071-2.33524-4.19257.00009-4.23279C90.9093,161.97418,90.9089,166.126,88.57367,166.16626Z"/><path class="a" d="M150.15266,63.21381a11.45661,11.45661,0,0,1-7.94989-3.437c7.98068-7.33837,7.97684-24.49652,0-31.83044,10.19629-9.34058,22.1445,1.73743,21.92191,15.91522C164.12489,54.55176,157.87028,63.21381,150.15266,63.21381Z"/><path class="a" d="M150.15266,103.46637a11.45664,11.45664,0,0,1-7.94989-3.437c7.98068-7.33838,7.97684-24.49652,0-31.83045,10.19629-9.34057,22.1445,1.73743,21.92191,15.91523C164.12489,94.80426,157.87028,103.46637,150.15266,103.46637Z"/><path class="a" d="M150.15266,142.94476a11.4566,11.4566,0,0,1-7.94989-3.437c7.98068-7.33838,7.97684-24.49646,0-31.83044,10.19629-9.34058,22.1445,1.73742,21.92191,15.91522C164.12489,134.28265,157.87028,142.94476,150.15266,142.94476Z"/><path class="a" d="M150.15266,183.1972a11.45656,11.45656,0,0,1-7.94989-3.437c7.98068-7.33838,7.97684-24.49646,0-31.83044,10.19629-9.34058,22.1445,1.73743,21.92191,15.91522C164.12489,174.53516,157.87028,183.1972,150.15266,183.1972Z"/><path class="a" d="M142.20277,59.77686c-7.98034-7.35627-7.97653-24.47858,0-31.83045"/><path class="a" d="M142.20277,100.02936c-7.98034-7.35626-7.97653-24.47858,0-31.83045"/><path class="a" d="M142.20277,139.50775c-7.98034-7.35626-7.97653-24.47858,0-31.83044"/><path class="a" d="M142.20277,179.76025c-7.98034-7.35626-7.97653-24.47857,0-31.83044"/><path class="a" d="M27.847,63.21381c-7.71762,0-13.97995-8.662-13.97995-19.35218C13.54973,28.48132,27.6974,17.51471,37.38377,29.73456c-5.8381,7.11011-5.83667,21.14581,0,28.25415C34.899,61.23212,31.53938,63.21381,27.847,63.21381Z"/><path class="a" d="M27.847,103.46637c-7.71762,0-13.97995-8.662-13.97995-19.35217C13.54973,68.73389,27.6974,57.76727,37.38377,69.98712c-5.8381,7.11011-5.83667,21.14581,0,28.25415C34.899,101.48462,31.53938,103.46637,27.847,103.46637Z"/><path class="a" d="M27.847,142.94476c-7.71762,0-13.97995-8.66211-13.97995-19.35217-.31729-15.38031,13.83038-26.34692,23.51675-14.12707-5.8381,7.1101-5.83667,21.14581,0,28.25415C34.899,140.963,31.53938,142.94476,27.847,142.94476Z"/><path class="a" d="M27.847,183.1972c-7.71762,0-13.97995-8.6621-13.97995-19.35217-.31729-15.38031,13.83038-26.34692,23.51675-14.12707-5.8381,7.1101-5.83667,21.14581,0,28.25415C34.899,181.21552,31.53938,183.1972,27.847,183.1972Z"/><path class="a" d="M37.38377,29.73462c5.84937,7.1073,5.84793,21.1485,0,28.25415"/><path class="a" d="M37.38377,69.98712c5.84937,7.1073,5.84793,21.1485,0,28.25415"/><path class="a" d="M37.38377,109.46552c5.84937,7.10729,5.84793,21.14849,0,28.25415"/><path class="a" d="M37.38377,149.718c5.84937,7.10736,5.84793,21.14856,0,28.25415"/><path class="a" d="M39.4481,202.46594a4.18331,4.18331,0,0,0,4.18332,4.18335h94.57034a4.18333,4.18333,0,0,0,4.18335-4.18335h0a4.18332,4.18332,0,0,1,4.18332-4.18335H165.6407a4.18332,4.18332,0,0,0,4.18335-4.18329V173.32214a4.099,4.099,0,0,1,2.03787-3.58838,6.87486,6.87486,0,0,0,2.5315-9.37146,7.195,7.195,0,0,0-2.53138-2.57269,4.099,4.099,0,0,1-2.038-3.58844V132.99548A4.0989,4.0989,0,0,1,171.862,129.407c4.57825-2.42187,4.62488-9.51489-.00018-11.944a4.09931,4.09931,0,0,1-2.03775-3.58844v-20.588a4.099,4.099,0,0,1,2.03793-3.58838,6.849,6.849,0,0,0,0-11.94415,4.0989,4.0989,0,0,1-2.03793-3.58844V52.9599a4.099,4.099,0,0,1,2.038-3.58844,7.02055,7.02055,0,0,0,2.06388-9.60754,11.90942,11.90942,0,0,0-2.06394-2.33655,4.099,4.099,0,0,1-2.03793-3.58838V15.36761a4.18335,4.18335,0,0,0-4.18332-4.18334H146.56846a4.18334,4.18334,0,0,1-4.18335-4.18335h0V5.68335A4.1833,4.1833,0,0,0,138.2018,1.5H43.63145A4.18334,4.18334,0,0,0,39.4481,5.68335h0V7.001a4.18331,4.18331,0,0,1-4.18332,4.18335H11.35039A4.18332,4.18332,0,0,0,7.167,15.36761V33.76868a4.10345,4.10345,0,0,1-2.09046,3.61889,6.84224,6.84224,0,0,0,0,12.02381,4.10345,4.10345,0,0,1,2.09049,3.61895V74.09521a4.10346,4.10346,0,0,1-2.09046,3.6189,6.84221,6.84221,0,0,0,0,12.02381,4.10345,4.10345,0,0,1,2.09046,3.61889v20.44733A4.10345,4.10345,0,0,1,5.07661,117.423a6.84226,6.84226,0,0,0,0,12.02381,4.10346,4.10346,0,0,1,2.09049,3.619v21.06488a4.10345,4.10345,0,0,1-2.09046,3.61889c-4.67752,2.40015-4.74643,9.593.00019,12.02375a4.10378,4.10378,0,0,1,2.09027,3.619v20.70685a4.18334,4.18334,0,0,0,4.18332,4.18335H35.26481a4.18332,4.18332,0,0,1,4.18329,4.18341Z"/><path class="a" d="M137.60884,24.50848c-2.33566-.04071-2.33524-4.19256.00009-4.23278C139.94447,20.31635,139.94407,24.4682,137.60884,24.50848Z"/><path class="a" d="M159.89265,24.08844c-2.33563-.04065-2.3352-4.19257.00009-4.23279C162.22828,19.89636,162.22789,24.04822,159.89265,24.08844Z"/><path class="a" d="M137.60884,66.30914c-2.33566-.04071-2.33524-4.19256.00009-4.23279C139.94447,62.117,139.94407,66.26886,137.60884,66.30914Z"/><path class="a" d="M159.89265,65.88916c-2.33563-.04071-2.3352-4.19257.00009-4.23279C162.22828,61.697,162.22789,65.84888,159.89265,65.88916Z"/><path class="a" d="M137.60884,105.78754c-2.33566-.04065-2.33524-4.19257.00009-4.23279C139.94447,101.5954,139.94407,105.74731,137.60884,105.78754Z"/><path class="a" d="M159.89265,105.36755c-2.33563-.04065-2.3352-4.19256.00009-4.23278C162.22828,101.17542,162.22789,105.32733,159.89265,105.36755Z"/><path class="a" d="M137.60884,146.04c-2.33566-.04065-2.33524-4.19257.00009-4.23279C139.94447,141.8479,139.94407,145.99976,137.60884,146.04Z"/><path class="a" d="M159.89265,145.62c-2.33563-.04065-2.3352-4.19257.00009-4.23279C162.22828,141.42792,162.22789,145.57977,159.89265,145.62Z"/><path class="a" d="M137.60884,186.29248c-2.33566-.04071-2.33524-4.19257.00009-4.23279C139.94447,182.1004,139.94407,186.25226,137.60884,186.29248Z"/><path class="a" d="M159.89265,185.8725c-2.33563-.04065-2.3352-4.19257.00009-4.23279C162.22828,181.68042,162.22789,185.83234,159.89265,185.8725Z"/><path class="a" d="M16.85136,24.50848c-2.33563-.04071-2.3352-4.19256.00009-4.23278C19.187,20.31635,19.1866,24.4682,16.85136,24.50848Z"/><path class="a" d="M39.13518,24.08844c-2.33564-.04065-2.33524-4.19257.00009-4.23279C41.47081,19.89636,41.47038,24.04822,39.13518,24.08844Z"/><path class="a" d="M16.85136,66.30914c-2.33563-.04071-2.3352-4.19256.00009-4.23279C19.187,62.117,19.1866,66.26886,16.85136,66.30914Z"/><path class="a" d="M39.13518,65.88916c-2.33564-.04071-2.33524-4.19257.00009-4.23279C41.47081,61.697,41.47038,65.84888,39.13518,65.88916Z"/><path class="a" d="M16.85136,105.78754c-2.33563-.04065-2.3352-4.19257.00009-4.23279C19.187,101.5954,19.1866,105.74731,16.85136,105.78754Z"/><path class="a" d="M39.13518,105.36755c-2.33564-.04065-2.33524-4.19256.00009-4.23278C41.47081,101.17542,41.47038,105.32733,39.13518,105.36755Z"/><path class="a" d="M16.85136,146.04c-2.33563-.04065-2.3352-4.19257.00009-4.23279C19.187,141.8479,19.1866,145.99976,16.85136,146.04Z"/><path class="a" d="M39.13518,145.62c-2.33564-.04065-2.33524-4.19257.00009-4.23279C41.47081,141.42792,41.47038,145.57977,39.13518,145.62Z"/><path class="a" d="M16.85136,186.29248c-2.33563-.04071-2.3352-4.19257.00009-4.23279C19.187,182.1004,19.1866,186.25226,16.85136,186.29248Z"/><path class="a" d="M39.13518,185.8725c-2.33564-.04065-2.33524-4.19257.00009-4.23279C41.47081,181.68042,41.47038,185.83234,39.13518,185.8725Z"/><rect class="a" x="69.02809" y="10.72314" width="39.10782" height="185.25366"/><path class="a" d="M127.39451,198.74084H50.9767V182.37665c13.16055-5.52814,13.15072-31.54321,0-37.06323v-3.18921c13.16055-5.52814,13.15072-31.54322,0-37.06324v-2.41522c13.16055-5.52814,13.15072-31.54321,0-37.06323V62.39325c13.16055-5.52814,13.15072-31.54321,0-37.06323V8.22272h76.41778V27.00983c-9.4208,7.1289-9.41543,26.5805,0,33.70373v6.54877c-9.4208,7.12891-9.41543,26.5805,0,33.70373v5.77466c-9.4208,7.12891-9.41543,26.58051,0,33.70374v6.54877c-9.4208,7.1289-9.41543,26.5805,0,33.70373Z"/><rect class="a" x="50.97703" y="141.80725" width="76.42044" height="4.23279"/><rect class="a" x="50.97703" y="101.55475" width="76.42044" height="4.23279"/><rect class="a" x="50.97703" y="62.07635" width="76.42044" height="4.23279"/><line class="a" x1="50.9767" y1="25.33002" x2="50.9767" y2="182.37665"/><line class="a" x1="127.39451" y1="27.00983" x2="127.39451" y2="180.69696"/></svg>