<svg xmlns="http://www.w3.org/2000/svg" viewBox="0 0 256.6 379.8">
<style>path{fill:#008eb0}</style>
<path d="m201.8 152.8 3.2 15.9 5.1-9.2zm-39.5 51.6 10.6 17.7-7.7-19.6zm14.9-22.7-.3 2.8-7 6.1 1.4 2.6 10.1-5.7zm5.5 4.7 5-6h-9.4zm13.5-.9-6.6-4.8-5.7 6.8 10 5.6zm-.9 8.4 20.1 12.2-17.9-19.3zm1.8 16.4 3.8-.4 7.7-.3-14.1-1.4-11 6.2v2.4l7.7-1.1zm-1.9-14.5v10.8l21.2 2.1zm-3 25.7-8.4-.6-1-1.4-4.5 11.4 15.2 15.1zm-10.4-3.9v-3.2l-9.5-5.4 5.2 19.5zm-3.2-10.5-2.7-4.8-3.7 4.8 8.7 4.9zm1.2-11.4-2.8 5.1 2.8 5.2h5.7l2.8-5.2-2.8-5.1zm-4.3 40-6.2 10.3-2.3 30zm18-39-3.5 4.6-2.7 4.8 6.2.4zm-30.7 11.7 6.1 35.1 7.4-12.4zm30.3-13.8-8.7-4.9 2.3 4.8 2.7 4.9zm-1.5 13.4-5.7-.4h-5.3l2.4 5.2zm6.4-23.6 13.5.6-5.9-5.3-8.2-9.4zM171.8 205l3.6-4.6 2.6-4.8-6.2-.4zm2-11.3 5.6.4h5.3l-2.4-5.2zm-7.3 7.5 6.4 16.2-2.6-9.8v-13l-1-2-2.8 8.6zm17.4-48.9 2.4 2.6 13.3-4.7-1.4-6.7zm11.2-13.5-.6-3.4-2.4 2.6c-.1.1-.2.2-.4.2l.3 1.7 4.8 1-1.7-2.1zm.3-6.8 3.4-3.8-5.6-7zm4.5 11.7 1.4 6.6 9.6 7.8 3.9-7.2zm3.6 26-3-15.1-3 12.9zm-18.1-13.3-1.2-1.3 5.9 24 6.1 4.4-.6-15.2-10.2-11.9zm-14.3-15.9 2.2-.5.2-.9zm-1.4-11.7 1.2 1.9 3.3 4.8.9-5-1.8-9.8zm35.8 42.2 7.1 11.4-2.1-20.4zm-15.3-40.5 1.1 5.9 2.7-3-2.2-11.1z"/>
<path d="m188.9 132.3-3.2 3.8h-5.4l-3.8-3.9-1.8 9.2-6 1.2 13.9 8.5 14-8.5-6-1.2zm-13 157.5 8.1-22.7-6.7-32-11.2 53.3-2.1 29.5zm-8.2-44-6.1-34.5-.9 15.8 4.5 51.1zm10-67h10.7l-5.7-23.1zm21.7-26.8-12 4.3 8.7 9.9zm34 59.3-3.5-5.6-12.4 14.1-1.1 3.4h11zm-12.7-1.2-1.9 5.8 10.2-11.6-4.2-6.6zm5.4-13.3 4 6.2 4.2-4.8zm-6.1 10.1 3.5-11-8.3-7.5zM185.7 267l4.5 21.3 3.4-39.8-14.9-14.8 7 33.3zm-108-125.6 35.3 3.3.8-2.3-5.9-5.5-35.6 1.9zm25.5-25.4-3.2 2.5 6.8 5.9 36.1 6.5zm42.2 8.2-32.9-6.5 37.2 14zM96.9 102l-2.7 2.7 9.2 9.5 38.5-.7zM36.6 67.3l48.6-.3-69.3-23.7zm83.5 18.1 24.4 24.2-18-32.7zm-9.4 30.3 34.6 6.8 1.6-7.5zM87.1 66l-9.8-10.2L26 45zm-8.2-10.9 11.5 12 32.3 6.7-36.3-24.2zm14.2 26.4 25.5 3.1 6.6-8.6L91 68.9zm3.2 2.1 46.6 26.7-24.3-24zm8.6 44.4 5.3 4.5h32.2l-35.6-6.4zm66.6-19.6.8-.7-.6.4zM160 211.1l-6.5 21.9-6.5 33 12.1-39zm10.8-105.5-1.5 2.9 1.1-1.4.4-1.5zm-36 174.7 7.8-.3 8.2-42.1-20 36.9zm43.3-171.2c0-.1 0-.1 0 0 .2-.1.5-.1.6 0l9.5 4.3 7-.9-2.9-2.4-6-1-7-2.7-3.8.6-6.3 5.5 8.9-3.4zM84.5 48.9 31.3 35l46.3 19.1zm122.3 129.7 3.3 3-6.1-9.9-4.8-1.8zM95.6 101 85.5 87.5l-25.1 4.8 32.5 11.4zM78.3 37 20 16.5l64.2 30.2zM57.4 91.2l23.9-4.6L37.5 79zM20.3 30.4 78 45.5 7.4 12.4zm128 131.9.2 14.8 9.1 1.1zm-3.8 42 14.5-8.4-.6-15-16.6 15z"/>
<path d="m147.7 214.3 13-10.8 4.2-2.8 3.2-10.6c0-.1 0-.1.1-.2l.1-.1 7-6.1.3-2.4-8 5.1-7.2 10.5s0 .1-.1.1c0 0-.1 0-.1.1l-15.2 8.8 2.7 8.4zm52.4 4.5-6.3 2.5 1.1 20.8zm-57.3-26 14.4-13-9-1.1zm38.4-37.8-1.2 1.4-10.3 11.9-1.5 15.8 7.9-5 5.1-24.1z"/>
<path d="m201 211.6-3.2.3-5.9 5.4-7 1c-.4.1-.6.5-.4.8.1.1.2.2.4.2l7.9.6 8.1-3.1h.3l14.9 1.8 2.5-7.8-17.6.8zM165.9 152l3.3 14.3 8.7-10zm-5.4 24.3 5.6-6.4-4.6 1.7zm0 17.6 5.8-8.5 1.4-14.9-7.8 9zm-87.8-66.1 35 7.3 1.1-1.6-5.7-4.8c-.2-.1-.3-.4-.3-.6 0-.2.1-.5.2-.6l2.2-2.2-6.9-6-32.2 3.1 6.6 5.4zm16.6-59.2-46.6.3 48.7 12.3z"/>
<path d="M214.5 223.9v-.1l1.2-3.6-13.6-1.7 4.2 64.4 10-37.4-1.9-21.4v-.1c.1 0 .1 0 .1-.1zm-33.1-71.6-14.3-8.8-1.4 6.7 13.4 4.7zm-84.2-52 45.1 11.6-49.8-28.7-5.4 3.6zm-30.6 12.9 31.9 4.4 3.3-2.6-9.1-9.5-37.7-.2zm98.7 28.7.8-.4 7.3-4.3-3.9-5.6.2 3.5zm-81.8 10.4 36.3.3.3-2.3-6.8-3.9-33.5 4.9zm65.6-2.5 8.8-4.3-36.2 5.1-.3 2.2 3.5 1.2zm4.5-5.3-38.3-1.4-.8 2.1 6.6 3.8zm45.5 41.6 19.2 20.8-5.2-20.2zm-179-154L14.6 41l54.7 11.4zm141.7 137.6 6-2.2-3-12.9zM5.4 9.6l73.5 25.9 9.1-1.1L.1 0zm121.2 64.9 10.1-6.5-44.1-16.3zM80.2 37l6.7 10.9 46 17-41.8-29.2zm-2.1 106.1-1.4 7 29.9-4.4zM128 75.5l23.1 19.2L138.2 69zM57.7 93.1l-4.2 10.6 34.7.1zm15.2 36.5-2.6 7.7 31.5-1.8zm-6-14.7-1.6 5.9 26.3-2.5zM168.7 127l4-9.2-.3-2-7.3 5.2zm-3.5-8 7.3-5.3 1.6-1.3-8.3 3.2zm7.3-13.5 2.4-1.7-2.2.9zm.8-2.8 7.7-3.3h-1.2l-6.1 1.8zm-25.6 9.5 4.9-14.2-23.2-19.2zm-63.5 41.7-.9 12.7 32.8-12.4zm92.2-55.8-.7.8 3.9-1.2h5.3l1.4-.2-3.7-1.2zm-9.8 38.2-.5 1.3 1.9-2.9-.3-6.1-1.9-3.3-.9 4zM156 156.8l5.2-11.1-10.5 5.1zm-45.6-22.7-1.2 1.8 5.9 5.5 45.7 1.7-9.6-9zm53.6 16.2 1.4-6.6-1.8.8-5 10.6zm-22.3 135.5-9.9 20.2 5.7 9.2zm64.4 75.6-.1-.1v-.1c-.1-.1-.1-.3-.1-.4l-1.3-12.1-20.2 14.3 39.3 12.6-17.6-14.2zm17 15.7L183 364.2l-7.3 10.2 16.1 4zm-41.2-14.2 18.4-59.7-14.7 34.9-27.2 41.3 14.9-4.5z"/>
<path d="m184.1 337.3 18.1-42.7-57.6 82.1 11.5 3.1zm-26-101.5-14 45.1-5.2 36.1 9.3 3.4zm78.6 44.7-7.2 36.2 17.3-10.9-2.9-27.9zm16.7 11.9-2.5-12.9-5.4-1.6 2.6 25.4zm-25.8 72.2-18.2-2.6 17.6 14.1zM185.2 99.3l-4.1 1.8 13.7 5.5-5.4-7.9zm38.7 234.8 4 4.3 4.6-1.6-4.2-15.5zM116.2 197.7l21.3-31.4-.6-1.5-25.9 26.1 1.9 6.6zm8.9-29.4-23.3 15.2 2 6.2zm10.2-4.2h-3.7l-26.1 26.1 4.3-.3zm-5-1.2-.4-2.8h-4.8L95.7 182l4.9.3zm-10.1-1.2-28.9 9.8 2.6 9.8zm3.8-3v-3.3l-3.5-1.1-35.9 13.5 5.7 2.3zm5.1 43.6-2.9 11.6 3.8-3zm-.3-5.1 16.5-35.2-6.2 4.9-17.6 37.6 2.8-.3zm4.5-21.8-15.7 23.2 2.5 5zm18.5 57.3-2-6.6-20.2 36.9.8 9zM90.4 82.6 36.8 69.1l-2.3 7.8 51.2 8.8zm99.3 211.1-5-23.6-7.3 20.2-13.8 32.8-16.4 45.4zm-45.4 43.8 4.4 1 4.5-3.4-4.3-11.1zm9.7-4.9 10.5-44.4-4.7-53.1-10.1 86.4zm-14.3-109.4h9.2l-2-6.1zm11.1.6 1.9 6.2 7-23.5-11.4 9.5 2.5 7.7zm51.8 110.8 17.1-19.9-3.5-28.8zm-56.2-119.1-3.1-9.6v-.1l-2.6-8.2-8.8 13.8 5.9 11.4 8.6-7.3zm33.4-113.2-4.3 3.1 4-.7 7.3 2.8 6.3 1.1 4.4 3.6-1.1-3.2zm20.3 235.2 15.6-56 .6-29.3-9.6 35.8v.1l-21.8 70.6 15.2-21.2z"/>
<path d="m200.8 223.2-5.6 25-3.9 45.6c0 .1-.1.2-.1.3l-38.8 68.5 52.7-75.1-4.3-64.3zm-60.5-28.3 5.1-13.4-13.7 14.9zm-3.4-32.4 8.9-9.4-14.3 6.7.4 2.7zm6.5-10.1-17.8 3.2v2.9h4.8zm-8.1 69.3-4.7-9.2-4.4 3.5zm23.9-47.4.7-3.4 3.6-17.9-6.5 5.6 2.2 15.7zm-7.8-20.2 5.7 16.6-1.7-12.1zm-3.1 5 7.4 12.7-6.2-18.2zm71.9 191.2-7-14-6.9 10.8 19.8 14.1zm-73.5-191.5 1.2-5.5-9.7 10.2.6 1.5zm-15.2 50.1 7.7-12.1-8.8 1.5zm15.3-31.4-.1-14.6-14.2 30.3zm65.7 156.8 5.7-15.4-16.7 19.5-15.4 21.4 18.5-13.1zm12.7-139.4 9.3 1.7-14.7-31.3zm8.6 14 1-8.8-3.8 4.3zm-3.8 12.8 9.1-5.7-4.4-3.5zm6.2-19.5-.9 8.7 3.9 3.1zm-21.6-16.6 8.6 7.9-5.3-29.3zM188 115c-.2 0-.4-.1-.5-.2l-8.9-4-4.6 3.9.4 2.7 7.2 2.7.7 5.6 1 1c.3.3.3.8 0 1.2-.3.3-.8.3-1.2 0l-1.4-1.4-.6-5.2-5.4-2 2 10.8 4.3 4.3h4l3.6-4.3 2.3-12.2v-.1s0-.1.1-.1c0-.1.1-.1.1-.2l.2-.2s.1 0 .1-.1h.5s.1 0 .1.1c.1 0 .1.1.2.1l.1.1 7.1 8.8 1.1-4.9-1.7-1.6L188 115zm-2.4 15.5-.8 1c-.2.3-.6.4-.9.5h-1.2l-1-.1c-.3 0-.6-.1-.9-.3l-.1-.1-.8-1c0-.1-.1-.1-.1-.2-.4-.6-.2-1.4.4-1.7h.1l.9-.4c.2-.1.5-.2.7-.1l.9.2.8-.1c.2-.1.5 0 .7 0h.1l.9.4h.1c.1 0 .1.1.2.1.3.2.4.5.4.9-.1.3-.2.6-.4.9zm9.9-16.4-4.3.5 8.5 3.8h.1l-1.1-3.3-3.2-1z"/>
<path d="M182.9 129.8h-.5l-.7-.1-.3.2.4.4h1.9l.4-.5-.2-.1-1 .1zm29 29.7 2 20 3.2-20.2-1.5-6.5zm38.2 118.1-8.8-18.6-9.9-12.8 13.8 29.9zm-22.4 20-6.3 17.5 1.9 15.6 4.2-12.4zm.6-58 10.7 13.8-11.6-28.5H217l11.3 14.7zm-1.4.7-10.5-13.6 1.6 18.8-.7 36.1 3.6 29.8 6.8-18.7zm5 44.1-2.6 8.6-.1 16.9 5.6-27.9zm18.9-15.8-5.8-13.7-12-20.6 9.8 24 8 16.9zm-21.9-3.5.3 22.5 1.2-3.8zm-21.5 95 17.9 2.6-19.1-13.7zm36.1-83.8L230 247l6.6 31.8zm-14-23.4 2.4 29.4 3.2-2.7z"/>
</svg>