<svg xmlns="http://www.w3.org/2000/svg" viewBox="0 0 256.6 379.8">
<style>path{fill:none;stroke:#008eb0;stroke-linecap:round;stroke-linejoin:round}</style>
<path d="m154.1 98.5-26.8-22.2m21.2 38.5-21.1-38.5m21.1 38.5L93.3 83.1l-6.5 4.3 10.7 14.3-3.6 3.6 9.9 10.3-4.3 3.4 7.7 6.7-2.8 2.8 6.2 5.3-1.7 2.7 6.6 6.2-1.2 3.3 7.4 4.3-.4 3.5 4.2 1.5v4.4h5.7l.6 4h6l1.1 3 9-7m15.6-15.2-11.4-10.6-5.5-9.8 1.9-9.2 5.7-16.3-15-29.8-47-32.9L-.2-.2l6.6 11.8 14.8 20.7-6.4 10.4 22.8 26.4-2.8 9.3 23.7 14.5-4.9 12.3 13.9 9.4-2.1 7.7 8.1 6.9-3.2 9.5 8.2 4.1-1.8 8.8 7.7 2-1.1 14.6 7.9 3.2 3.1 11.6 7.4.4 2.5 8 6.7-.5 2.1 7.6 4.3.3 3.5 6.9 4.7-.5 4.7-7.3m-38-162-12.4 1.5 7.5 12.2-8.6 6.4 12.2 12.7 36.4 7.6 11.8-7.6-51.8-19.1-81-38.1m81 38.1 40 26.7M78.7 56 21.1 32.3m69.8 36.5L14.7 42.7m22.8 26.4 55.8 14m-2.4-14.3 2.4 14.3M14.7 42.7l64 13.4M21.1 32.3l66.2 17.4m-81-38.1 73.4 25.9M37.5 69.1l53.4-.3m48.1 97.9-21.7 32m21.7-32-18.2 38.9m17.1-41.9-27 27.2m21-27.2-30.2 19.7m23.8-23.7-34.3 11.6m30.1-17.5-36.9-.3m29.9-7.5-35.8-3.3m30.5-6.2-35.6-7.4m26.2-10-32.2-4.4m26.6-9.3L58.4 92.8m28.4-5.4-52.1-9m52.1 9-28.5 5.4M94 105.4l-40.6-.2m46.2 13.9-34.3 3.2m32.3-20.5 50.9 13m-44.6.9 44.6-.9m-41.2 11 44.8 8.1m-41.4-.1h41.4m-36.6 8.9 48 1.7m-41.8 5.9 41.7-5.8m-37.9 10.8 24.4-4.3m-18.7 8.7 18.7-8.7m-12 12.7 12-12.7m-3.3-27-42.7-8.3 48.2 18.1m-81.9 4.9 38.8-2.1m-32.3 14.9 37.6-5.5m-10.1 45.4 27.7-27.7m-6.4-4L94.4 183m-11.1-14.9 38-14.3m-28-70.7 26.4 3.2 7.6-10m-7.5 10.1 28.7 28.5"/>
<path d="m174 118.7-.6-3.6 5.4-4.5 20.7 9.4 2.2 1.9-1.5 7-8.4 9.2M173.4 115l-8.9 6.4 1-5.7 6-7.5 8.4-6.1 17.3 6.9 4.4 12.8m-13.2-6.9 7.5-.9 3.6 1.3-6.5-5.3-6.1-1-7.1-2.7-4.2.7-10 8.7 13.2-5.2m-7.2-2.3 1.8-7 6.7-1.9h5.3l4.8-.8 7.1 10.5m-31.7 6.7 5-10 2.8-4.4 3-3.1 6.6-1.9 7.1 2.3m-19.5 7.1 14.7-6.4M167 142.7l8-4.7-4.4-6.3-6.1-10.2 1 3.8-1 4.5 1.7 6.9-2.8 7.7 5.8-9-.2-6.4m14-1.1-1.2-1.2-.6-5.4-7.1-2.7 2.3 12.4-1.9 10.1-7.5 1.5m16-10.9h1.1c.1 0 .2-.1.3-.2l.8-1c.2-.2.1-.5-.1-.6h-.1l-.9-.4h-.3l-.9.1h-.2l-.9-.2c-.1 0-.2 0-.3.1l-.9.4c-.2.1-.3.4-.1.6v.1l.8 1c.1.1.2.1.3.1h1.4zm9-13-2.3 12.4 1.9 10.1 7.5 1.5m-7.1-24 8.1 10.1m-8.1-10.1 3.1 15.2M174 118.7l-4.7 10.7m25.8 4.4 1 5.1 3 3.7m-22.8-11.5 4.7 4.7h4.7l4-4.7"/>
<path d="m130.5 274.5-1-12 21.1-38.6 2.7 8.8-22.8 41.8 4.6 6.2 8.8-.3-12.3 25.1 7.1 11.4 10.8 4 5.3 13.8-5.3 4-5.6-1.2 2-6 3.6-10.5m-.1 0 11-93.9-16.6 53.3 9.4-47.6 8.5-28.5-1.3 22.8 5.4 60.8-2.5 34.3-19.4 54.1 13.2 3.6 18.8-5.6 16.2 4.1 35.7-1.5-44.8-14.5 18.1-25.2 15.6-55.9.7-36-1.9-21.4m-37.8 7.1-11.9 56.9-11.1 46.8m4.9-155.3.7 17.1m3 125.7 13.8-32.5 8.2-22.8m32.1-21.5-11.3 42.1-62.3 88.8 47-82.8-5.6-26.5-7.5-35.8 17 16.9-3.8 45.4m-16.6 81.1 8.7-12.1 23.1-75-20.9 49.5-28.2 42.8m4.7-175.5 7.2 41.4 8.8-14.6m-8.8 14.6-3.1 42.2M228 224l17.8 30.3 5.8 13.9v10.3l-9.5-20.1-14.3-18.4-12.3-16m-71.6 56.4-5.2 36.5m84.4 16.7 4.7 5 5.7-1.9-5.1-18.8M183 362.4l22.4-15.9 8-12.5m-6.6 26 21.8 3.1-23.2-16.6 1.4 13.5 21 16.9.8-13.8-7.5-14-7.6-15.1 7.3-19.6-19.6 22.8m-31.9-168.9-1.7 17.6m15.4 31.9-5.3 13.3-16-26.7m31.6 16.3 1.4 27.2 6.8-30.4 4.6 69.9m-9.3-119.1.6 17.1 22.6 24.5-6.1-23.8-16.5-.7-7.7-5.6-6.8-27.3-5.9 27.3m39.7 101.5 4 33.1 2.4 19.2 5.4-15.8 19.2-12.1 6.6-13.7-2.6-13.5-7-2.1-8.5 3.1-4.8 4-2.7 8.9-.8-52.5 8.3 39.6-7.6 38.3m13.4-59.4L228 224m3.3 59.6-3.5-43.6 16.8 36.5 3 29.3m-26.9 8.6 7.9-22-.2 25.4m-51.3-137.9h12.7m7.7 5.5-2.8 9m-4.9-14.5L183 188m-11.6 19.5 6.3 23.6M183 214v3.7m11.6-10.2 25.4 2.4m-25.4-15.4 25.4 15.4m-53.9-8.5 11.6 29.6m-.6-51.1 5.9 8.1m-13.6 2.6 2.1 3.9"/>
<path d="M171.4 194.5v13L183 214l11.6-6.6v-13L183 188l-11.6 6.5zm8.4 12.4h6.6l3.3-5.9-3.3-5.9h-6.6l-3.3 5.9 3.3 5.9zm-8.4-12.4 8.3.6m3.3-7.1 3.3 7.1m8.3-.6-5 6.5m5 6.5-8.3-.6M183 214l-3.2-7.1m-8.4.6 5-6.5"/>
<path d="m183 152.5-16-9.8-17.1 8.3-1.9 8.7-17.9 38.1 1.4 13.6L138 224h12.5l-9.1-28.2 18.1-16.4 9.6-11.1 10.5-12 3.4-3.8h0zm-52.8 45.3 11.3-1.9 3.1 9.7 15.7-9 7.3-10.6 9.5-6.1-.6 4.4-7.1 6.3-3.3 10.8-4.3 2.9-23.7 19.7-12.6-7.9 4.7-18.3h0zm36.8-55.1-1.7 8.5-4 20.1-1.6 8.1-11.7-19.7 1.9-8.7 9.7 28.4m-9.7-28.4 6.8 7.6 6.8-14.2m16.2 11.9-14.5-5.1 4 17.1-8 3m4-20.1-8.6 7.4 2.9 20.8M148 159.7l.2 18.5-6.8 17.7-9.9 15.5-6.1 4.7m34.2-36.7-11.4-1.3-18.1 19.7"/>
<path d="m201.5 217.6 15.4 1.9 19-21.7-11.2-1.9L220 210l-18.8.9-3.5.3-5.9 5.4-8.8 1.2 1.6 2.3 8.7.6 8.2-3.1M183 152.5l16.1-9.8 17.1 8.3 1.9 8.7 17.9 38.1-1.5 13.6L228 224h-12.5l1.5-4.5 3.1-9.5 4.5-14.1-18.1-16.4-9.6-11.1-10.5-12-3.4-3.9h0zm52.9 45.3 4.7 18.3L228 224m-28.9-81.3 1.7 8.5 4.1 20.1 9.1 14.8 4.1-26.5-1.9-8.7-11.3 20.3m-18.5-14.9 14.4-5.1-4 17.1 8 3m-4-20.1 10.5 8.4 2.7 26.5m4-26.4 6.6 36.2 9.9 15.5 6.1 4.7"/>
</svg>