<svg xmlns="http://www.w3.org/2000/svg" viewBox="0 0 186.9 186.9"><path fill="#ffb748" d="M146.4 99.4c0 .2-.2.7-.6 1-6.1 4.1-12.6 7.4-19.4 10-.4 0-.7-.3-.9-.7-.7-3.3-2.4-6.2-4.9-8.4l-17-14.6c-.3-.3-.4-.8-.1-1.2.2-.3.7-.5 1.1-.4l41.1 13.6c.4 0 .5.4.6.7M123 32.5c0-3.9-.7-7.7-2.4-11.5-.2-.5-.7-.7-1.2-.5l-6.3 3.4c-.4.3-.6.8-.4 1.2a20.65 20.65 0 0 1-38.4 15.2c-1.9-4.9-1.9-10.4 0-15.3.2-.5 0-1-.5-1.2l-6.1-3.3c-.5-.3-1.1-.1-1.3.4-6.6 14.9.1 32.4 15 39s32.4-.1 39-15c1.7-3.9 2.6-8.1 2.5-12.3l.1-.1zm-43.4-8.7 13.4 7c.3.1.6.1.9 0l13.5-7c.5-.3.6-.9.3-1.3l-.1-.1A17.5 17.5 0 0 0 83 18.6c-1.5 1.1-2.7 2.4-3.8 3.8-.3.4-.2 1.1.3 1.3-.1 0 0 0 .1.1zm11.8 60.6a.9.9 0 0 0-1 0L75.9 96.7c-.2.2-.4.4-.4.7v16.7c0 .5.4 1 .7 1 4.9.9 9.7 1.2 14.6 1.5.5-.1.9-.5.9-1V85.1c0-.4-.2-.7-.5-.9l.2.2zm4.9 0c-.4-.3-1-.3-1.4.1-.2.2-.2.5-.2.7v30.1c0 .6.5 1 1 1 4.9-.1 9.7-.6 14.6-1.6.4 0 .7-.5.7-1V97.4c0-.3-.1-.6-.4-.7L96.5 84.4h-.2zm-19.8-6.7c.5.1 1.1-.2 1.2-.7v-.2c.1-.5-.2-1.1-.7-1.2h-.1L6.2 52c-.5-.2-1.1.1-1.2.6-.1.2-.1.4 0 .6 2.6 7.6 6.2 14.9 10.7 21.6.2.1.5.4.9.4l59.9 2.5zm-10.1 23.5 16.8-14.6c.3-.4.3-.9 0-1.2-.2-.3-.6-.4-1-.4l-41 13.6a1 1 0 0 0-.6 1.3c0 .1.1.2.2.3 6.1 4.1 12.6 7.5 19.4 10.1.5 0 .9-.3 1-.7.7-3.3 2.5-6.2 5-8.4h.2zM72 117c-2.4-.6-4.8-1.3-7.2-2.1a1 1 0 0 0-1 1V168c0 .4.2.7.5.9l6.9 4c.5.3 1.1.1 1.3-.4.1-.2.1-.3.1-.5v-54.2c0-.5-.3-.9-.7-1m109.2-65.1h-.2l-71 24.1c-.5.1-.9.6-.8 1.2.1.5.6.9 1.2.8l60.2-2.6c.4 0 .6-.2.9-.4 4.6-6.8 8.2-14.1 10.7-21.9.1-.5-.2-1.1-.7-1.2h-.3zm-59 63.2c-2.4.7-4.8 1.4-7.2 1.9-.4.1-.7.5-.7 1V172c0 .6.5 1 1 1 .2 0 .3 0 .5-.1l6.9-4c.2-.2.5-.5.5-.9v-52c0-.5-.4-1-1-1v-.1z"/><path fill="#383a3b" d="M77.5 26.2c-.4 0-.8.2-1 .6-3.4 9.1 1.3 19.3 10.5 22.6 2 .7 4.2 1.1 6.3 1.1A17.75 17.75 0 0 0 110 26.8c-.2-.5-.7-.7-1.2-.5l-15.4 8.1L78 26.2c-.1-.1-.3-.1-.5-.1m-8.6-8.2 6.2 3.4c.4.2 1 0 1.2-.4a20.6 20.6 0 0 1 28.7-5.3c2.1 1.4 3.9 3.2 5.3 5.3.3.4.8.6 1.2.4l6.2-3.3c.5-.2.7-.8.5-1.3 0-.1-.1-.1-.1-.2a29.42 29.42 0 0 0-49.6 0c-.3.6-.1 1.2.4 1.4zm3.3 82.8a.9.9 0 0 0-1 0l-3 2.6c-2.2 1.9-3.7 4.6-4.1 7.5 0 .5.1 1 .6 1.1l7.2 1.9c.5 0 1-.4 1-1v-11.3c-.2-.3-.4-.7-.7-.8zm.6-29.7c.5-.1.9-.5.9-1.1 0-.2-.2-.5-.4-.6L1.5 26.2c-.5-.3-1.1-.1-1.3.3-.1.2-.2.5-.1.7.3 6.7 1.4 13.4 3.2 19.9 0 .2.2.5.5.6l68.8 23.5h.2V71zm8.1 10.4c-.1-.4-.4-.8-.9-.9l-60-2.4c-.5 0-1 .5-.9 1 0 .2.1.4.2.6 5 6.4 10.9 12.2 17.4 17.1h.3l43.4-14.5c.5-.1.7-.5.6-1h-.1zm10.2 37.8c-4.9 0-9.6-.6-14.3-1.5a1 1 0 0 0-1 1v56c0 .4.2.7.5.9l14.3 8.3c.4.3 1 .2 1.3-.2.1-.2.2-.5.1-.7v-62.7c.1-.8-.3-1.1-.9-1.1m19.2-1.5h-.2c-4.7.8-9.4 1.3-14.1 1.5a1 1 0 0 0-1 1V183c0 .5.4 1 1 1 .2 0 .3 0 .5-.1l14.3-8.3c.2 0 .5-.5.5-.7v-56.2c0-.5-.4-1-1-1m4.9-3.9h.1l6.9-1.9c.5-.2.7-.7.6-1.2-.5-2.9-1.9-5.5-4.1-7.4l-2.9-2.6c-.4-.3-1-.3-1.4.2-.1.2-.2.4-.2.6v11.4c0 .4.4.9 1 .9M167 78.1l-60 2.4c-.5-.1-1.1.2-1.2.7v.2c-.1.5.2 1.1.7 1.2h.3l43.3 14.1c.3.2.7.2 1 0 6.3-5 11.9-10.7 16.8-17 .3-.4.3-1-.1-1.3-.4-.2-.6-.3-.8-.3m19.4-51.7a.9.9 0 0 0-1 0l-71.7 42.9c-.4.3-.5.8-.2 1.2.2.5.7.6 1.1.5l68.6-23c.4 0 .6-.4.7-.7 1.7-6.5 2.7-13.2 3-19.9 0-.4-.2-.7-.5-.9v-.1z"/></svg>