<svg xmlns="http://www.w3.org/2000/svg" viewBox="0 0 192.8 186.9">
<path fill="#f1f2f3" d="M151 99.4c0 .3-.1.7-.5 1a96.5 96.5 0 0 1-20 10.3 1 1 0 0 1-1-.8c-.7-3.3-2.5-6.4-5.1-8.6l-17.5-15a1 1 0 0 1 1-1.7l42.4 14c.4 0 .6.4.7.8zm-24.1-69c0-4-.8-8-2.5-11.9a1 1 0 0 0-1.4-.5l-6.4 3.4a1 1 0 0 0-.4 1.3 21.3 21.3 0 1 1-39.6 0c.2-.5 0-1-.5-1.3L69.7 18a1 1 0 0 0-1.4.5 30.5 30.5 0 1 0 58.5 12zM80 23.8a1 1 0 0 0-1 .7 18.2 18.2 0 0 0 17.3 24.3 18.3 18.3 0 0 0 17.2-24.3 1 1 0 0 0-1.4-.6l-15.8 8.4-15.8-8.4a1 1 0 0 0-.5-.1zm2-2.5 13.8 7.3a1 1 0 0 0 1 0l13.9-7.3a1 1 0 0 0 .3-1.5 18.2 18.2 0 0 0-29.4 0 1 1 0 0 0 .3 1.5zm-11-5.8 6.5 3.4a1 1 0 0 0 1.2-.3 21.3 21.3 0 0 1 35.1 0 1 1 0 0 0 1.3.3l6.4-3.4a1 1 0 0 0 .4-1.4 30.4 30.4 0 0 0-51.2 0 1 1 0 0 0 .4 1.4zm23.2 68.4a1 1 0 0 0-1 .1L78.4 96.6a1 1 0 0 0-.4.7v17.1c0 .5.4 1 .8 1 5 1 10 1.4 15 1.6a1 1 0 0 0 1-1V84.7a1 1 0 0 0-.6-1zm-19.8 17a1 1 0 0 0-1 0l-3.1 2.7a13 13 0 0 0-4.3 7.7c0 .5.2 1 .7 1.1a96.2 96.2 0 0 0 7.3 2 1 1 0 0 0 1-1v-11.7a1 1 0 0 0-.6-.9zm25-16.9a1 1 0 0 0-1.6.8V116a1 1 0 0 0 1 1c5-.2 10-.7 15-1.6.4 0 .8-.5.8-1v-17a1 1 0 0 0-.4-.8L99.5 83.9zM75 70.3a1 1 0 0 0 .5-1.8L1.5 24A1 1 0 0 0 0 25c.3 7 1.4 13.8 3.2 20.5 0 .3.3.6.6.7l71 24h.2zm4 6.7a1 1 0 0 0 .4-2L6.3 50.3a1 1 0 0 0-1 .2 1 1 0 0 0-.3 1A96.3 96.3 0 0 0 16 74c.3.2.6.4.9.4L79 77zm4.5 4a1 1 0 0 0-.9-.9l-62-2.5a1 1 0 0 0-.8 1.6 97.3 97.3 0 0 0 18 17.7h.3L83 82c.4-.2.7-.6.6-1zm-15 20.3 17.3-15a1 1 0 0 0-1-1.7l-42.3 14a1 1 0 0 0-.3 1.7 96.5 96.5 0 0 0 20 10.4 1 1 0 0 0 1-.8c.8-3.3 2.6-6.4 5.2-8.6zm5.8 16.2a98.8 98.8 0 0 1-7.4-2 1 1 0 0 0-1 1v53.8c0 .4.2.7.5.9l7.2 4.1a1 1 0 0 0 1.5-.8v-56a1 1 0 0 0-.8-1zM94 120a100 100 0 0 1-14.8-1.5 1 1 0 0 0-1 1v57.9c0 .3.2.7.5.8l14.8 8.6a1 1 0 0 0 1.5-1V121c0-.6-.4-1-1-1zm19.8-1.5h-.2A100 100 0 0 1 99 120a1 1 0 0 0-1 1v64.9a1 1 0 0 0 1.5.9l14.8-8.6c.3-.1.5-.5.5-.8v-57.9a1 1 0 0 0-1-1zm12.2-3a99.3 99.3 0 0 1-7.4 2 1 1 0 0 0-.8 1v56a1 1 0 0 0 1.5.8l7.2-4.1c.3-.2.5-.5.5-.9v-53.7a1 1 0 0 0-1-1zm-7.2-1.1h.2l7.1-2c.5-.2.8-.7.7-1.2-.5-3-2-5.7-4.3-7.7l-3-2.6a1 1 0 0 0-1.7.7v11.8a1 1 0 0 0 1 1zm53.5-36.8-62 2.5a1 1 0 0 0-.3 2l44.7 14.7a1 1 0 0 0 1-.1c6.5-5 12.3-11 17.4-17.5a1 1 0 0 0-.8-1.6zm14.6-27.4a1 1 0 0 0-.3 0L113.4 75a1 1 0 0 0 .3 2l62.2-2.6c.3 0 .6-.2.8-.4a92 92 0 0 0 11-22.5 1 1 0 0 0-.9-1.3zm5.5-26a1 1 0 0 0-1 0l-74 44.3a1 1 0 0 0 .8 1.8l70.8-24c.4-.1.6-.4.7-.7a96.2 96.2 0 0 0 3.2-20.6 1 1 0 0 0-.5-.9z"/>
</svg>