<svg xmlns="http://www.w3.org/2000/svg" viewBox="0 340 450 320">
  <path id="body" fill="none" stroke="#fff8" opacity="0.7" d="M332.42 650.23c-.9 12.45-1.98 24.9-3.24 37.32-2.18 22.1-3.3 33.36-5.07 43.54-.86 4.97-1.82 9.92-2.9 14.86m4.84 27.3c4.1-13.76 7.66-42.4 9.76-60.66 2.32-24.07 4.15-45.21 5.64-64.82m12.76-307a13.49 13.49 0 0 1-4.9 2.88l-.05.02c-2.55.84-3.92.34-5.4 1.66-1.26 2.16-4.27 6.7-4.15 9.36-.67 2.72-1.33 5.46-1.96 8.2-2.8 12.74-5.3 24.66-7.73 36.7-3.76 17.86-7.8 35.27-9.97 49.8-2.06 14.69-4.23 49.78-4.63 64.03-1.73 40.58-.24 90.5 5.56 133.07 1.04 5.5 2.78 19.1 3.4 24.28 2.5 7.95 6.4-15.86 6.6-18.8.18-1.64.52-4.34.76-7.26 3.03-.43 8.05 1.58 9.56 3.08l.15-.02c4.9-.24 8.04-3.8 10.6-8.64a43.43 43.43 0 0 0 3.12-6.7m-202.23 179.2c-16.29-5.08-25.38-8.05-32.46-16.83-5.64-6.98-8.34-15.6-9.22-18.34-1.9-5.9-.9-5.38-4.3-18.85a168.9 168.9 0 0 0-4.24-14.63c-2.18-6.25-2.54-5.85-3.89-10.32a84.55 84.55 0 0 1-3.05-16.23c-1.84-32.88-1.18-80.41-.42-110.67.1-2.04.44-4.05 1.02-6 .5-61.17-.24-136.14-.05-198.63.91-63.6-4.03-107.18-.08-175.3 0 0 .61-7.9 2.11-18.75 1.56-11.25 2.46-13.94 2.92-15.22a42.68 42.68 0 0 1 10.95-16.36c14.76-15.18 13.82-13.25 33.5-28.54 3-2.55 6.33-4.68 9.9-6.34 12.35-5.77 43.62-7.5 43.62-7.44a762.8 762.8 0 0 1 25.76-.61c6.91.03 17.83.27 25.76.6 0-.04 31.27 1.67 43.63 7.45 3.57 1.66 6.9 3.8 9.9 6.34 19.65 15.3 18.72 13.36 33.47 28.54a42.68 42.68 0 0 1 10.95 16.36c.47 1.28 1.37 3.97 2.92 15.22.88 6.23 1.58 12.48 2.12 18.76 3.94 68.1-1 111.69-.08 175.28.2 62.5-.55 137.47-.05 198.63.58 1.95.92 3.97 1.01 6 .77 30.27 1.43 77.79-.4 110.68a84.55 84.55 0 0 1-3.06 16.23c-1.36 4.47-1.7 4.07-3.89 10.3-.56 1.59-2 5.87-4.23 14.65-3.4 13.47-2.4 12.94-4.3 18.85-.9 2.74-3.59 11.36-9.23 18.34-7.09 8.78-16.18 11.75-32.47 16.83-22.8 6.98-45.1 9.58-72.05 9.94-26.96-.36-49.26-2.96-72.06-9.94Zm-24.15-65.68a339.14 339.14 0 0 1-2.9-14.86c-1.76-10.18-2.89-21.44-5.08-43.54a1407.78 1407.78 0 0 1-3.23-37.32m6.37 123.02c-4.1-13.76-7.66-42.4-9.76-60.66-2.1-21.6-3.98-43.2-5.64-64.82m-12.76-307a13.49 13.49 0 0 0 4.9 2.88l.05.02c2.54.84 3.91.34 5.4 1.66 1.26 2.16 4.27 6.7 4.15 9.36.67 2.72 1.32 5.46 1.95 8.2 2.8 12.74 5.3 24.66 7.73 36.7 3.76 17.86 7.8 35.27 9.98 49.8 2.06 14.69 4.23 49.77 4.63 64.03 1.72 40.57.24 90.49-5.57 133.07-1.04 5.5-2.77 19.1-3.38 24.28-2.52 7.95-6.42-15.86-6.6-18.8-.19-1.64-.54-4.34-.78-7.26-3.03-.43-8.04 1.58-9.55 3.08l-.15-.02c-4.9-.24-8.05-3.8-10.6-8.64a43.51 43.51 0 0 1-3.12-6.7"/>
  <path id="p1"   fill="none" stroke="#fff8" opacity="0.7" d="M333.9 313.39a664.2 664.2 0 0 1 2.9 35m12.51-4.74-.13-4.1c-.4-12.18-1.17-23.61-2.7-46.5-1.56-23.22-2.34-34.82-3.9-50.38a1007.3 1007.3 0 0 0-4.39-37.03m4.73 141.27-.77-9.02c-.86-9.63-1.29-14.45-1.78-19.28-.4-3.78-.98-9.1-1.8-15.5M334 352.27c-5.33 26.96-14.56 72.77-17.75 91.85-6.17 40.96-7.8 87.85-8.24 123.02-.77 47.09 3.15 107.6 9.13 157.54m22.57-369.98a14.5 14.5 0 0 0-6.55-4.7c-.77-.26-1.56-.45-2.37-.56"/>
  <path id="p2"   fill="none" stroke="#fff8" opacity="0.7" d="M127.41 378.07h69.73a6.2 6.2 0 0 0 4.37-1.8l10.71-10.72a6.17 6.17 0 0 1 4.36-1.81h21.27c1.64 0 3.21.64 4.37 1.8a6.17 6.17 0 0 0 4.36 1.8h5.07c1.87.01 3.64.86 4.81 2.33l4.23 5.28a6.17 6.17 0 0 0 4.65 2.3l22.66.6c2.04.05 3.98-.9 5.17-2.55l4-5.53a6.17 6.17 0 0 1 5.32-2.55l12.5.68a6.2 6.2 0 0 0 4.8-1.92l2.6-2.75"/>
  <path id="p3"   fill="none" stroke="#fff8" opacity="0.7" d="M113.2 348.39a677.37 677.37 0 0 1 2.9-35m-4.3-107.75c-1.22 8.88-2.85 21.62-4.39 37.03-1.56 15.56-2.33 27.16-3.89 50.39-1.53 22.88-2.3 34.3-2.7 46.5-.05 1.42-.1 2.68-.13 4.1m10.74-40.54c-.83 6.4-1.4 11.7-1.8 15.49-.5 4.83-.92 9.65-1.78 19.28l-.77 9.02m25.78 377.76c5.98-49.93 9.9-110.45 9.13-157.54-.44-35.17-2.08-82.06-8.24-123.02-3.19-19.08-12.42-64.9-17.76-91.85m3.22-2.83c-.8.11-1.6.3-2.38.56a14.5 14.5 0 0 0-6.54 4.7"/>
  <path id="hood" fill="none" stroke="#fff8" opacity="0.7" d="M225 297.54c-13.06.1-24.7.17-41.8 3.04a193.53 193.53 0 0 0-28.78 6.98c-11.96 3.78-23.77 9.38-31.28 18.42-3.33-4.72-8.44-13.22-9.18-20.53-1-7.4-1.8-13.55-2.2-20.6-.4-7.43-.13-13.6-.08-17.92.23-18.7.42-34.33 2.67-47.85a113.98 113.98 0 0 0 1.54-24.45c10.41-15.57 25.45-26.36 41.2-35.8 14.53-3.64 47-7.58 67.9-7.27 20.92-.31 53.38 3.63 67.92 7.27 15.75 9.44 30.78 20.23 41.2 35.8a113.98 113.98 0 0 0 1.54 24.45c2.24 13.52 2.43 29.15 2.67 47.85.05 4.32.33 10.5-.09 17.92-.39 7.05-1.18 13.2-2.2 20.6-.73 7.3-5.84 15.8-9.17 20.53-7.5-9.04-19.32-14.64-31.29-18.42-9.4-3.06-19.02-5.4-28.78-6.98-17.1-2.87-28.73-2.94-41.8-3.04h.01Zm-108.9 15.85c.84-7.6 2.83-24.53 6.42-45.21 2.24-12.86 4.26-24.57 8.25-40.33 1.4-5.58 4.8-18.5 10.27-34.11a178 178 0 0 1 16.04-34.91 120.98 120.98 0 0 1 10.67-17.07c19.01-5.64 44.72-6.77 57.26-6.72 12.54-.05 38.25 1.08 57.26 6.72a120.3 120.3 0 0 1 10.65 17.07 178.1 178.1 0 0 1 8.44 15.88c2.87 6.2 5.4 12.55 7.6 19.03a399.73 399.73 0 0 1 10.28 34.1c3.98 15.77 6.01 27.48 8.24 40.34 2.6 15 4.74 30.07 6.42 45.2"/>
  <path id="ceil" fill="none" stroke="#fff8" opacity="0.7" d="M323.04 321.97c-1.75 8.27 8.35 14.4 5.95 26.96m-202.03-26.96c1.67 8.23-8.47 15.05-5.96 26.96m184.87 286.82-3.13.78m10.42-196.57c-.9-.3-1.96-.6-2.87-.9M147.26 636.54l-3.13-.78m-7.3-195.78 2.87-.9m-16.56-113.1c-5.79 8.58-5.44 18.4-3.45 25.29 4.16-1.2 2.7-4.9 3.36-9.67.58-4.5 3.54-10.06 10.4-13.53 28.4-14.33 62.5-19.18 91.55-19.46 30.6-.28 62.9 5.6 91.54 19.46 7.22 3.49 9.82 9.03 10.4 13.53.66 4.77-.8 8.47 3.37 9.67 1.98-6.87 2.34-16.71-3.46-25.28M225 646.25c-25.05-.57-46.5-1.05-77.74-9.72 2.27-38.78 2.2-80.97.67-109.76-.85-22.4-3.82-61.53-8.22-87.7 22.8-6.44 59.2-11.57 85.3-10.84 26.1-.73 62.46 4.4 85.28 10.84-4.4 26.17-7.38 65.3-8.22 87.7-1.53 28.78-1.6 70.98.67 109.76-31.19 8.67-52.75 9.15-77.74 9.72Zm105.3-295c-6.42 36.57-12.45 59.08-17.88 93.42-7 52.38-7.98 88.06-8.05 140.29.82 54.2 1.84 59.94 6.17 111.98.5 6.82 1 13.2 1.17 20.73-.02 4.57.61 12.85-1.17 16.73-17.54 13.56-58.32 17.76-85.54 17.4-27.25.35-67.98-3.83-85.55-17.4-1.77-3.92-1.14-12.05-1.17-16.73.18-7.53.68-13.91 1.18-20.73 4.32-52.04 5.34-57.8 6.17-111.98-.07-52.17-1.06-88-8.06-140.3-5.44-34.34-11.44-56.77-17.88-93.4"/>
  <path id="rearRight"  fill="none" stroke="#27a" stroke-width="2" d="M348.21 522.52c-1.78 45.35-3.44 81.58-6.76 125.25m9.17-147.28.13 7.47m-20.96 136.8c-.52 5.08-1.57 8.99-5.13 15.19-7.37-47.95-8.76-99.97-7.24-146.87-.07.01-.13.04-.2.07l-1.8.27c-.74 24.8-1.2 50.48.47 78.43.54 9.45 3.4 44.52 5.1 54.64 1.03 5.5 2.77 19.1 3.38 24.28 2.51 7.95 6.41-15.86 6.6-18.8.2-1.64.54-4.34.77-7.25l-1.95.05Zm16.26-17.58c3.1 0 2.77-1.22 2.8-5.58.01-1.16.06-2.37.05-4.65.04-2.41-.14-3.9-2.18-4.06m3.15 18.36-3.52.08m-16.56 13.44h-.12l-5.78 4.57h-.76l-1.62.03m-4.4-124.7c-.97 42.46.78 91.68 7.55 135.28 6.13-10.62 4.93-15.45 5.97-26.97 2.37-38.17 5.22-77.37 6.6-114.43l-20.12 6.12Zm13.52 108.3c-1.3.58-8.66 6.76-8.66 6.76m-2.7-26.4 12.85-3.42m.21-3.3-13.26 3.87m18.65-105.4a425.2 425.2 0 0 0-20.3 8 609.3 609.3 0 0 0-.3 11.6l20.12-6.13c.18-4.51.35-9 .5-13.47h-.02Zm1.94-.22-1.93.22c-1.3 41.99-4.4 84.9-7.1 127.9-.4 4.96-.52 8.6-.84 11.8l1.95-.07c3.67-49.2 5.74-87.93 7.96-139.86h-.04Zm15.51 127.57a43.43 43.43 0 0 1-3.13 6.7c-2.55 4.84-5.7 8.4-10.59 8.64a.69.69 0 0 1-.15.02c-1.5-1.5-6.53-3.51-9.56-3.08 3.67-49.2 5.74-87.93 7.96-139.86 5.45-1.27 5.63-1.86 10.92-4.36l.01-.01c1.23-.62 2.24-1.27 2.9-1.57-.15 33.6-.12 67.22.1 100.84.57 1.95.9 3.97 1 6 .12 2.25.32 12.6.54 26.68Zm-5.97-26.34c-.3-1.03-.78-.62-.97.02-2.74 8.62-2.72 18.34-1.7 27.1.11 1.3.27 2.98.52 4.96.55 3.97 2.67-6.3 2.82-6.92h.01c.43-2.06.74-4.13.93-6.22a53.2 53.2 0 0 0-1.6-18.94Zm-24.54 53.86 1.48 8.54"/>
  <path id="frontRight" fill="none" stroke="#27a" stroke-width="2" d="M350.02 381.47c-1.88-.53-3.17-.57-4.18.1a.96.96 0 0 0-.12.1c-.9-12.8-1.45-19.08-2.78-34.57l-.02-.2c.27-.54.58-1.07.93-1.57 1.5-1.32 2.86-.82 5.4-1.66.03 0 .04 0 .06-.02.13 5.19.25 12.44.71 37.8v.02Zm-9.26 16.24c.06-14.35-.29-28.7-1.05-43.02-.59 2.38-1.16 4.77-1.72 7.17 1.45 48.44 1.37 96.18-.26 143.22l1.93-.22.04-.01.01-.15c1.52-35.86 1.52-67.38 1.05-107Zm9.31 76.45c-.8-35.8-1.03-40.06-3.29-75.76-3.05-1.44-3.16-5.1-2.97-10.8.15-2.93.5-4.9 1.91-5.93-.9-12.8-1.45-19.08-2.78-34.57l-.02-.2c-1.34 2.36-3.24 5.33-3.2 7.79.76 14.32 1.1 28.67 1.04 43.02.47 39.5.47 71.25-1.05 106.99v.15c5.44-1.27 5.62-1.86 10.9-4.36-.18-10.15-.38-19.04-.54-26.33Zm-20.04-74.58c-3.76 17.87-7.8 35.28-9.98 49.8-2.06 14.7-4.23 49.78-4.63 64.04l1.8-.27.2-.08a852.8 852.8 0 0 1 4.43-60.9 745.22 745.22 0 0 1 8.54-54.33l-.36 1.74Zm33.35-11.41a44 44 0 0 0-9.8-5.43c-2.2-.85-5.9-2.5-7.74-1.16a.96.96 0 0 0-.12.1c-1.42 1.03-1.76 3-1.9 5.92-.26 5.05.1 9.1 2.15 10.3 3.43 2.16 7.4 2.94 11.12 4.46 4.99 1.77 9.94 3.5 14.87 5.2 2.3.57 2.5-2.5 2.71-4.3.22-6-5.4-10.43-11.29-15.1Zm-19.57-.57c.12 1.6.49 3.18 1.1 4.67a12.09 12.09 0 0 0 3.42 4.15m-9.83-14.54-5.73 4.28-.22 1a743 743 0 0 0-10.7 65 852.8 852.8 0 0 0-4.43 60.9 447.5 447.5 0 0 1 20.3-8h.01c1.41-40.86 1.7-80.75.77-123.18Zm-.5-20.02-.18.75-.07.29c-1.82 8.35-3.52 16.23-4.98 23.26l5.73-4.28c-.13-6.6-.3-13.28-.5-20.02Zm-20.09 139.23c3.77-.62 10.85-6.1 10.85-6.1l9.43-6.9m15.38-2.27c.01-6.44.04-12.9.06-19.28v.02c.06-22.9.11-45.16.04-65.44-2.32-.94-4.7-1.42-6.88-2.72 2.77 40.53 3 60.4 3.83 102.09l.01-.01c1.23-.62 2.25-1.27 2.9-1.57l.04-13.1Zm.06-19.24v-.02a35.88 35.88 0 0 0-2.37-7.87c-.73 7.3-1.02 14.65-.88 22 .1 3.4.33 6.6.74 10.35a.46.46 0 0 0 .88.13c.72-1.72 1.25-3.5 1.57-5.33.74-6.4.76-12.86.06-19.26Zm-3.25 14.12c2.43-.4 1.82-1.7 1.97-5.58.02-1.16.06-2.37.05-4.64 0-2.18 0-3.68-1.73-4.01m-.12 17.98 3.22-.03m-3.4-84.5.16 8.97m3.03-26.15c.02-14.71.3-28.5.64-41.98a13.5 13.5 0 0 1-4.9 2.9"/>
  <path id="rearLeft"   fill="none" stroke="#27a" stroke-width="2" d="M108.55 647.77c-3.33-43.67-4.99-79.9-6.76-125.25m-2.54-14.56.13-7.47m18.87 144.22c.24 2.92.6 5.62.77 7.27.2 2.93 4.1 26.74 6.6 18.8.62-5.2 2.35-18.78 3.4-24.3 1.7-10.11 4.55-45.2 5.1-54.63 1.67-27.95 1.2-53.62.46-78.43l-1.8-.27a1.81 1.81 0 0 0-.2-.08c1.51 46.9.13 98.93-7.24 146.88-3.56-6.2-4.6-10.1-5.13-15.18l-1.96-.06Zm-14.97-31.82c-2.04.17-2.22 1.65-2.18 4.06 0 2.28.04 3.49.05 4.65.02 4.36-.3 5.6 2.8 5.58m-.3 4.15-3.53-.08m28.37 18.12c-.55 0-1.09 0-1.62-.02h-.76l-5.78-4.58h-.12m-7.45-126.22c1.4 37.06 4.24 76.26 6.6 114.43 1.05 11.52-.15 16.35 5.98 26.97 6.77-43.6 8.51-92.82 7.55-135.27l-20.13-6.13Zm15.26 121.18s-7.36-6.18-8.66-6.75m-1.48-23.07 12.84 3.43m.2-2.86-13.26-3.86m-5.4-101.54c.15 4.48.32 8.96.5 13.47l20.13 6.13c-.07-3.89-.17-7.76-.3-11.6a414.86 414.86 0 0 0-20.3-8h-.03Zm-1.96-.23c2.22 51.93 4.3 90.67 7.95 139.86l1.96.06c-.33-3.18-.45-6.83-.84-11.8-2.7-43-5.8-85.9-7.1-127.9l-1.93-.21-.04-.01Zm-14.94 100.9c.1-2.03.44-4.04 1.02-6 .25-30.68.2-65.8.1-100.84.64.3 1.66.95 2.9 1.57 5.3 2.5 5.47 3.1 10.92 4.37 2.22 51.94 4.3 90.67 7.95 139.87-3.03-.44-8.04 1.57-9.55 3.08l-.15-.02c-4.9-.25-8.05-3.81-10.6-8.65a43.51 43.51 0 0 1-3.12-6.7c.21-14.08.41-24.43.53-26.67Zm3.83 19.28c.2 2.09.5 4.16.92 6.22h.01c.15.62 2.28 10.89 2.82 6.92.25-1.98.42-3.66.54-4.96 1-8.76 1.02-18.48-1.7-27.1-.2-.64-.67-1.05-.98-.02a53.2 53.2 0 0 0-1.6 18.94Zm24.67 43.46 1.48-8.54"/>
  <path id="frontLeft"  fill="none" stroke="#27a" stroke-width="2" d="m100.7 343.65.04.02c2.54.84 3.91.34 5.4 1.66.36.5.67 1.03.94 1.58l-.02.2c-1.33 15.48-1.9 21.76-2.78 34.56a1.04 1.04 0 0 0-.12-.1c-1.02-.67-2.3-.63-4.19-.11.47-25.37.6-32.62.72-37.8v-.01Zm9.6 161.05v.15h.04c.64.09 1.28.16 1.92.23a2183.24 2183.24 0 0 1-.26-143.22c-.65-2.8-1.24-5.23-1.7-7.17a749.06 749.06 0 0 0-1.07 43.02c-.47 39.6-.47 71.13 1.06 106.99Zm-10.92-4.21c5.3 2.5 5.47 3.09 10.92 4.36v-.15c-1.53-35.74-1.54-67.48-1.07-107 .02-14.14.21-28.74 1.06-43 .02-2.47-1.87-5.44-3.2-7.8l-.03.2c-1.33 15.49-1.9 21.77-2.78 34.57 1.42 1.04 1.75 3 1.9 5.93.2 5.7.1 9.36-2.97 10.8-2.25 35.7-2.49 39.95-3.29 75.76-.15 7.3-.35 16.18-.54 26.33Zm20.22-102.65c3.52 18 6.37 36.12 8.55 54.34a852.8 852.8 0 0 1 4.43 60.9c.07.01.14.04.2.07l1.8.27c-.4-14.26-2.57-49.34-4.63-64.03-2.18-14.53-6.22-31.94-9.98-49.8l-.37-1.75Zm-44.27 5.43c.2 1.8.4 4.86 2.7 4.28 4.93-1.69 9.9-3.42 14.88-5.2 3.72-1.51 7.7-2.3 11.12-4.45 2.05-1.2 2.41-5.25 2.15-10.3-.15-2.93-.48-4.9-1.9-5.93a1.04 1.04 0 0 0-.12-.1c-1.85-1.32-5.55.32-7.74 1.17a44 44 0 0 0-9.8 5.43c-5.9 4.66-11.52 9.1-11.3 15.1h.01Zm26.33-6.85a12.1 12.1 0 0 0 3.43-4.15c.61-1.5.99-3.07 1.1-4.67m6.07 117.48h.01c6.84 2.49 13.6 5.16 20.3 8a852.79 852.79 0 0 0-4.42-60.9 742.47 742.47 0 0 0-10.7-65.01l-.22-1-5.73-4.3c-.93 42.44-.65 82.33.76 123.2Zm-.76-123.2 5.73 4.28a2662.5 2662.5 0 0 0-5.06-23.55c-.06-.25-.1-.5-.17-.75-.2 6.74-.37 13.42-.5 20.02Zm.3 106.2 9.43 6.92s7.1 5.47 10.85 6.09m-35.6-2.18c.64.3 1.66.95 2.9 1.57.83-41.68 1.06-61.55 3.83-102.08-2.17 1.3-4.57 1.78-6.88 2.73-.07 20.27-.02 42.52.04 65.43v-.02c.02 6.38.05 12.84.06 19.29l.04 13.08Zm-.05-13.08a24.8 24.8 0 0 0 1.57 5.34.46.46 0 0 0 .88-.13c.41-3.76.63-6.96.74-10.34.15-7.35-.15-14.7-.88-22a35.86 35.86 0 0 0-2.37 7.86v.02c-.7 6.4-.68 12.85.06 19.25Zm2.9-19.36c-1.72.33-1.72 1.83-1.74 4 0 2.28.04 3.5.06 4.65.15 3.88-.46 5.2 1.97 5.58m-3.39 3.72 3.22.03m.02-75.56.17-8.96m1.05-56.28a13.5 13.5 0 0 1-4.9-2.9c.34 13.5.63 27.28.65 41.99"/>
</svg>
