<svg xmlns="http://www.w3.org/2000/svg" viewBox="0 0 334 250">
  <path id="d-fr" fill="none" stroke="#07a" d="M121.6 28.4c-4.8-2.8-7-9.4-6.4-15.5.3-3.4 5.9-2.5 9-2.2 5.6.6 11.7 5.2 12.7 12 .6 3.9 0 8.1.6 13.5M116.1 6.5c-1 .8-2 1.8-2.6 3-1 2-1.8 8.9-1.3 10.4 1.3 4.2 3.2 5.6 5.6 7.3m-8.6-15.4c-5.4 0-8.4-.3-13.4-.6-3-.5-5.6.5-6.9 2.7m-8.2-2.1 8.3-.2m-5.8-5s0 2.8.3 2.5l5.8-1.3v-.2l-6-1.1h-.1v.1Zm65.2 28.5c-4.8-3.1-15.2 1.6-17.1 7.6-1 8.1-1 16.3 0 24.4 2 6 12.3 10.9 17.1 7.6 3.8-2.5 3.3-18.9 3.3-18.9s.5-18.2-3.3-20.7Zm-26.8 46.3c-4.8 2.8-7.1 9.5-6.5 15.5.4 3.5 6 2.5 9 2.2 5.6-.6 11.8-5.1 12.7-11.9.6-4 .1-8.2.7-13.6M116 103.3h-.1a8 8 0 0 1-2.5-3c-1-2-1.9-8.8-1.3-10.3a12 12 0 0 1 5.5-7.3M89 95.9c1.2 2.2 3.9 3.3 6.8 2.7 5-.2 8-.5 13.5-.6m-40-74.7c.2 21 .2 42.1 0 63.3m52-58.1c-.6 1-1 2-1 3.2l.3 23.2-.3 23.2c0 1.2.4 2.3 1 3.3M96.8 3.5l1.8 1.7m-3.9 101h2l2-1.6m30.2-40.1V45.3M89 98.3l-8.3-.2m2.6 5.3 6-1.1v-.2l-5.8-1.4c-.3-.2-.2 2.5-.3 2.6l.1.1Zm57.2-35.3c2.2.7 4.6.7 6.8 0 1-.3 1.8-.8 2.6-1.3m-9.3 3.4c3.2.8 6.5.3 9.3-1.3m0-25.4c-.8-.6-1.7-1-2.6-1.4a11 11 0 0 0-6.7 0m9.4-.8a12.2 12.2 0 0 0-9.3-1.3"/>
  <path id="d-fl" fill="none" stroke="#07a" d="M121.6 169.6c-4.8-2.8-7-9.5-6.4-15.5.3-3.5 5.9-2.5 9-2.2 5.6.6 11.7 5.1 12.7 11.9.6 4 0 8.2.6 13.6m-21.4-29.7c-1 .7-2 1.8-2.6 3-1 2-1.8 8.8-1.3 10.3 1.3 4.2 3.2 5.6 5.6 7.4m-8.6-15.4c-5.4-.1-8.4-.4-13.4-.6-3-.6-5.6.5-6.9 2.7m-8.2-2.2 8.3-.2m-5.8-5s0 2.8.3 2.6l5.8-1.4v-.2l-6-1.1-.1.1Zm65.2 28.6c-4.8-3.2-15.2 1.6-17.1 7.6-1 8-1 16.3 0 24.4 2 6 12.3 10.8 17.1 7.6 3.8-2.6 3.3-18.9 3.3-18.9s.5-18.3-3.3-20.7Zm-26.8 46.3c-4.8 2.8-7.1 9.4-6.5 15.5.4 3.4 6 2.5 9 2.2 5.6-.6 11.8-5.2 12.7-12 .6-3.9.1-8.1.7-13.5M116 244.5h-.1c-1-.9-2-1.8-2.5-3-1-2-1.9-8.9-1.3-10.4a12 12 0 0 1 5.5-7.3M89 237.1c1.2 2.2 3.9 3.2 6.8 2.7 5-.3 8-.5 13.5-.6m-40-74.8v63.3m52-58c-.7.9-1 2-1 3.2l.2 23.2-.2 23.2c0 1.1.3 2.3 1 3.2m-24.5-77.8 1.8 1.6m-3.9 101h2l2-1.6m30.2-40v-19.2m-39.8 53-8.3-.2m2.6 5.2 6-1v-.3l-5.8-1.3c-.3-.3-.2 2.5-.3 2.5l.1.1Zm57.2-35.2c2.2.7 4.6.7 6.8 0 1-.4 1.8-.8 2.6-1.4m-9.3 3.4c3.2.8 6.5.3 9.3-1.3m.1-25.4a10.5 10.5 0 0 0-9.4-1.3m9.4-.8a12.2 12.2 0 0 0-9.3-1.3"/>
  <path id="d-rl" fill="none" stroke="#07a" d="m250 224.7.1-64.3m-23.8-1.2-5.6 5.8c-3 3.2-4.6 7.4-4.6 11.8l.2 32.5c0 4.3 1.7 8.6 4.8 11.7l4.6 5m104.6-45.2a10.5 10.5 0 0 0-9.4-1.4m9.4-.7a12.2 12.2 0 0 0-9.2-1.3m-.1 28a11 11 0 0 0 9.4-1.3m-9.3 3.4c3.2.8 6.5.3 9.3-1.3m-29.5-40.9v50.8c0 .7.1 1.5.4 2.2v.2c.3.5.1 1-.3 1.3a12 12 0 0 0-3.1 3 13 13 0 0 0-1.7 3.7c-.7 2.3-1.9 6.3-.6 9 1.2 1.6 3.7 1.6 5.9 1.6 3.8 0 7.5-1.1 10.6-3.4a13 13 0 0 0 4.1-4.8c1.5-3 1.5-10 1.5-10l.4-7.2"/>
  <path id="d-rr" fill="none" stroke="#07a" d="M250.1 94.6V30.4M225.8 29l-4.8 5c-3 3.2-4.7 7.4-4.7 11.8l-.2 32.6a17 17 0 0 0 4.6 11.7l5.5 6M321 75.5a10.4 10.4 0 0 0 9.5-1.4m-9.3 3.4c3.2.9 6.5.4 9.3-1.2m0-25.4a10.6 10.6 0 0 0-9.4-1.4m9.5-.7a12.2 12.2 0 0 0-9.4-1.3m-3-4.2-.3-7.3s0-7-1.5-10c-1-2-2.4-3.6-4.1-4.8a17 17 0 0 0-10.7-3.3c-2 0-4.7 0-5.8 1.6-1.3 2.6-.1 6.7.5 9a13 13 0 0 0 1.7 3.7c.9 1.2 2 2.3 3.3 3"/>
  <path id="frontLeft"  fill="#3af1" stroke="#07a" d="M151.6 50.2c-.2-9.4.6-23.2-1.5-30.9-4.1-8.8-10.4-10.2-15.8-11-4.2-.6-8.5-1-12.7-1.2-7.4-.3-12.3-2-19-1.9-8.9.1-15-.8-13.5 9 .6 3 2.4 4.8 4.7 7 2.3 2 4.4 4.3 6.6 4.2 6.2 0 12 .3 17.4 1.9 4 1 14.4 5.2 14.7 8.6 0 1-.4 1.5-1 4.7a35 35 0 0 0-.8 8.2c0 7-.6 13.6.6 20.4.8 3.2 1.3 3.7 1.2 4.8-.3 3.4-10.7 7.5-14.6 8.7a66 66 0 0 1-17.5 1.8c-2.2 0-4.3 2-6.6 4.2-2.2 2.2-4.1 4-4.7 6.9-.6 2.4 0 6.6 1.5 7.6 2.3 1.6 6.9 1.3 12 1.4 5.6.1 7-.6 13.4-1.4 6.2-.6 10-.4 18.3-1.7 5.5-.7 11.7-2.2 15.8-11 1.6-5.1 1.5-15.3 1.5-22.8V50.2ZM92 26.2c0-1.2-.8-2.1-2-2.2l-43.9-2.3a58 58 0 0 0-8.6 9.5c-1.6 2.8-1.6 5.5-1.7 8.2L35 54.9l.8 15.5c0 2.8 0 5.5 1.7 8.3 1.2 2.4 6.5 7.6 8.6 9.5l44-2.3c1.1 0 2-1 2-2.2-.4-14.3-.4-43.2 0-57.6Zm-46 62-39 2C6.2 88 5.6 85.6 5.2 84 4.7 81.7 2 73.8 2 69.5V40.3C2 36 4.9 28.2 5.3 25.8c0-.6.8-3.2 1.9-6.2l38.9 2c-3.2 2.9-6.1 6-8.7 9.5-1.5 2.8-1.5 5.6-1.6 8.2L35 55l.8 15.4c0 2.8 0 5.5 1.7 8.3a54 54 0 0 0 8.7 9.5Zm85.3-19.6-.4-2c-6.2-4.4-6.2-19 0-23.3l.5-2.7c.6-3.2 1.2-3.7 1-4.7-.1-1.6-1.4-3-6-5.1-8-4.1-17-6-25.9-5.4a7 7 0 0 0-1.8 4.6l-.4 25 .4 24.9a7 7 0 0 0 1.7 4.6c6.3 0 12-.4 17.5-1.9 3-.8 5.9-2 8.6-3.5 4.5-2.2 5.8-3.6 6-5.1.1-.7-.7-2.6-1.3-5.4ZM98.3 55l.4-25a7 7 0 0 1 1.7-4.5c-2.2 0-4.3-2.1-6.6-4.3-2.3-2.1-4.1-4-4.7-6.8-4-.7-4.7-.7-8.2-2.5-5.7-2.6-7-5.4-15.7-7.2-3.3-.8-12.2.5-17.6.8L19.3 7.8c-6.8.8-9.7 5-12.2 11.8 31.7 1.8 51.5 2.7 83 4.4 1.1 0 2 1 2 2.1-.4 14.4-.4 43.3 0 57.6 0 1.2-.9 2.1-2 2.2L7 90.2c2 5.4 5.3 11.3 12.4 11.8l34.4 3c6.4.6 8.3.8 11.4.3 4.1-.9 8-2.5 11.4-5l4.3-2.2c3.5-1.8 4.3-1.9 8.2-2.5.7-3 2.5-4.7 4.8-6.9 2.2-2.1 4.3-4.3 6.5-4.2a7.1 7.1 0 0 1-1.7-4.6l-.4-25Zm-3.7 51.3a8 8 0 0 0-4.2 1.5l-23.3.2c-12.3 0-14-1.7-27.2-2.2-7.2-.3-12.8-1-24-2.5-6.8-.3-9.7-7.4-9-13H7c2 5.4 5.3 11.3 12.4 11.8l34.4 3c6.4.6 8.3.8 11.4.3 4.1-.9 8-2.5 11.4-5 1.2 3 3.3 5.6 6.7 5.6l11.3.3Zm2-102.7L83.3 4c-3.4 0-5.4 2.7-6.7 5.5-2.7-1.6-5-3.5-11.4-4.8-3.3-.8-12.2.5-17.6.8L19.3 7.8c-2.6.3-5 1.4-7.1 3-2.3 2.5-4 5.5-5.1 8.8h-.2c-.7-5.5 2.2-12.6 9-13a254 254 0 0 1 24-2.4C53 3.7 54.7 2 67 2l23.3.1c1.1 1 3.1 1.4 6.2 1.4Z"/>
  <path id="frontRight" fill="#3af1" stroke="#07a" d="M151.6 191.3c-.2-9.3.6-23.1-1.5-30.8-4.1-8.8-10.4-10.3-15.8-11-4.2-.6-8.5-1-12.7-1.2-7.4-.3-12.3-2-19-1.9-8.9 0-15-.9-13.5 9 .6 3 2.4 4.7 4.7 6.9 2.3 2.1 4.4 4.3 6.6 4.3a61 61 0 0 1 17.4 1.7c4 1.2 14.4 5.3 14.7 8.7 0 1-.4 1.6-1 4.8-.7 2.6-.8 6-.8 8.1 0 7-.6 13.7.6 20.5.8 3.3 1.3 3.7 1.2 4.7-.3 3.4-10.7 7.6-14.6 8.7-5.7 1.4-11.6 2-17.5 1.9-2.2-.1-4.3 2-6.6 4.2-2.2 2.1-4.1 4-4.7 6.8-.6 2.4 0 6.7 1.5 7.7 2.3 1.6 6.9 1.3 12 1.4 5.6 0 7-.7 13.4-1.4 6.2-.7 10-.5 18.3-1.7 5.5-.8 11.7-2.2 15.8-11 1.6-5.2 1.5-15.3 1.5-22.8v-17.6Zm-59.6-24c0-1.1-.8-2.1-2-2.2l-44-2.3c-2 1.9-7.4 7-8.6 9.5-1.6 2.8-1.6 5.6-1.7 8.2 0 3.7-.8 15.6-.8 15.6l.8 15.4c0 2.8 0 5.5 1.7 8.3a54 54 0 0 0 8.7 9.5c14-.7 27.4-1.3 43.9-2.3 1.1 0 2-1 2-2.1-.3-14.4-.3-43.3 0-57.6Zm-46 62-39 2a72 72 0 0 1-1.8-6.1C4.7 222.8 2 215 2 210.7v-29.3c0-4.3 2.7-12.2 3.2-14.5 0-.6.8-3.2 1.9-6.2l38.9 2c-3.2 2.9-6.1 6-8.7 9.5-1.5 2.8-1.5 5.6-1.6 8.2 0 3.7-.8 15.6-.8 15.6l.8 15.4c0 2.8 0 5.5 1.7 8.3a54 54 0 0 0 8.7 9.5Zm85.3-19.5-.4-2c-6.2-4.4-6.2-19 0-23.4l.5-2.6c.6-3.2 1.2-3.7 1-4.8-.1-1.5-1.4-2.9-6-5-8-4.2-17-6-25.9-5.5a7 7 0 0 0-1.8 4.6l-.4 25 .4 25c0 1.6.7 3.2 1.7 4.5 6.3 0 12-.2 17.5-1.9 3-.8 5.9-2 8.6-3.4 4.5-2.2 5.8-3.6 6-5.2.1-.7-.7-2.6-1.3-5.3Zm-33-13.7.4-25a7 7 0 0 1 1.7-4.6c-2.2 0-4.3-2-6.6-4.2s-4.1-4-4.7-6.9c-4-.6-4.7-.7-8.2-2.5-5.7-2.6-7-5.4-15.7-7.2-3.3-.8-12.2.5-17.6.8L19.3 149c-6.8.8-9.7 5-12.2 11.8L90 165c1.1 0 2 1 2 2.2-.3 14.3-.3 43.2 0 57.6 0 1.1-.9 2-2 2.1l-83 4.4c2 5.3 5.3 11.3 12.4 11.8l34.4 3c6.4.4 8.3.8 11.4.2 4.1-.8 8-2.4 11.4-4.8 1.5-1 3.2-1.8 4.3-2.3 3.5-1.9 4.2-2 8.2-2.5.7-3 2.5-4.8 4.7-7 2.3-2 4.4-4.2 6.6-4.2a7.1 7.1 0 0 1-1.7-4.5l-.4-25Zm-3.7 51.3a8 8 0 0 0-4.2 1.5l-23.3.1c-12.3 0-14-1.7-27.2-2.2-7.2-.3-12.8-1-24-2.4-6.8-.3-9.7-7.5-9-13H7c2 5.3 5.3 11.3 12.4 11.8l34.4 2.9c6.4.6 8.3.9 11.4.3 4.1-.8 8-2.4 11.4-4.8 1.2 2.8 3.3 5.5 6.7 5.5l11.3.3Zm2-102.6-13.3.2c-3.4 0-5.4 2.7-6.7 5.6-2.7-1.7-5-3.6-11.4-4.9-3.3-.8-12.2.5-17.6.8L19.3 149a14 14 0 0 0-7.2 3c-2.3 2.5-4 5.5-5 8.8h-.2c-.7-5.6 2.2-12.7 9-13 8-1.2 16-2 24-2.5 13.1-.5 14.8-2.2 27.2-2.2l23.3.2c1.1.9 3.1 1.5 6.2 1.5Z"/>
  <path id="rearLeft"   fill="#3af1" stroke="#07a" d="M279.2 218c0 1.4.5 2.8 1.2 4-2.4 0-3 .6-7 3.7l-.4.3c-1 .8-2 1.8-2.7 2.8-.6.7-.9 1.6-.9 2.4 0 .7 0 1.4.3 2l-6 1.3-10.5 5c-3 1-38.2 3.1-54.2 2.5-2.3-.2-7.6-.7-9.4-2.2-2-1.7-3.6-8.3-4.2-11.2a251 251 0 0 1-2-13c.9 5.7 2.8 12.1 5.4 12.2l61.2-3.1 19-1a3 3 0 0 0 3-3.1l.2-56.1c0-1.7-1.3-3-3-3.1-24-1.4-62.2-3.3-86.3-4.6 9.7-6 19.6-14 31.6-13.6l56.1-.5c1 0 2 .4 2.5 1.2-2.3.9-4 2.5-3.9 5.2v.8a11.3 11.3 0 0 0 2 5.7c1.3 2 3.1 3.7 5.2 5 1.4.9 3 1.6 4.4 2.2a7.6 7.6 0 0 0-1.5 4.4l-.9 25.2v.5l.8 25Zm-10-56.6c-24-1.4-62.2-3.3-86.3-4.6 0 0-1 40-.1 53.3l.6 5.5c.9 5.7 2.8 12.1 5.4 12.2l61.2-3.1 19-1a3 3 0 0 0 3-3.1l.2-56.1c0-1.7-1.3-3-3-3.1Zm61.6 17.5c0-3-2.3-6.8-6.4-7.2-3.3-.6-7.8 2.6-11 5.3a5.4 5.4 0 0 0-1.6 4.3v21.2c0 1.7.5 3.3 1.4 4.8 4.3 6.9 18 9.4 17.5-2v-26.4Zm-17.6 28.4a8.3 8.3 0 0 1-1.3-4.8c-.1-7-.2-14.2-.1-21.2-.1-1.6.4-3.2 1.6-4.4.1-5.3-1-6.5-7.1-9.4-1.8-.8-3.6-1.6-5.4-2.2-6.5-2.2-13.3-3-20-2.5a7.6 7.6 0 0 0-1.6 4.4l-.9 25.2v.5l.8 25c0 1.5.5 2.9 1.2 4 1.4 0 3.3.2 6.8.1 4.8 0 9.5-.7 14-2.3 6.2-2.5 14.4-5.5 12-12.4Zm18.5-56.8-.3-1.2c-.5-.6-.7-1.3-.6-2A643 643 0 0 0 298 144c-5.2-.5-7.2-.5-13.1-1-3.7-.2-8.6-.4-11.9.9-2.3.9-4 2.5-3.9 5.2v.8a10.1 10.1 0 0 0 2 5.8 22.2 22.2 0 0 0 9.7 7.1 49.3 49.3 0 0 1 25.4 4.7c6.2 3 7.2 4 7.1 9.5a5.4 5.4 0 0 0-1.6 4.3v21.2c0 1.7.5 3.3 1.4 4.8 2.4 6.8-5.8 10-12 12.4a40.6 40.6 0 0 1-14 2.3h-6.8c-2.4 0-3 .6-7 3.7l-.4.3c-1 .8-2 1.7-2.7 2.8l-.3.6-.6 1.8c-.1.7 0 1.4.3 2 2.1 4 23.7 5 28 5.7 13 .4 32.6 4.7 34-17.7.1-21.7.5-49.2 0-70.7Z"/>
  <path id="rearRight"  fill="#3af1" stroke="#07a" d="M270.4 109.6c.7.7 1.7 1.2 2.6 1.5-.5.8-1.4 1.3-2.4 1.3l-56-.6c-6.7 0-13.2-2-18.9-5.5L183 98.2l86.3-4.6a3 3 0 0 0 3-3l-.2-56.2a3 3 0 0 0-3-3c-22.9-1.3-57-3-80.2-4.1-2.6 0-4.5 6.5-5.4 12.2.6-4.6 1.5-10 2-13 .6-3 2.2-9.6 4.2-11.2 1.9-1.5 7-2.1 9.4-2.3a644 644 0 0 1 49.9 1.8l4.3.7 10.5 5.1 6 1.2c-.8 1.5 0 3.3.3 3.8.4 1 1 1.8 3.5 3.8 3.7 3 4.5 3.6 6.9 3.7a8.3 8.3 0 0 0-1.2 4l-.8 25v.5l1 25.3c0 1.5.5 3 1.4 4.3-3.1 1.2-6 3-8.2 5.5a10.7 10.7 0 0 0-3.4 8.2c0 1.4.4 2.7 1.3 3.8l-.1-.1Zm1.6-75.1a3 3 0 0 0-3-3.1l-18.9-1-24.3-1.3-37-1.8c-2.6 0-4.4 6.5-5.4 12.2l-.6 5.4c-1 13.3.1 53.2.1 53.2l86.4-4.5a3 3 0 0 0 3-3l-.3-56.1Zm58.7 15.4c.6-14-19.3-7.4-18.8 2.7-.2 7-.2 14.2-.1 21.2-.2 2.7 1.5 4.5 3.7 6 3.5 2.4 5.8 4 8.9 3.6a7.2 7.2 0 0 0 6.4-7.2V49.8h-.1Zm-29.5-14.5a41.1 41.1 0 0 0-14-2.3h-6.8a8.3 8.3 0 0 0-1.2 4l-.8 25v.6l1 25.2c0 1.6.5 3.1 1.4 4.4 6.2.6 13.5-.3 20-2.5v-52l1-2.1-.6-.4Zm10.6 38.3V52.6a9 9 0 0 1 1.4-4.8c1.6-5.3-1.9-8.1-8.2-10.8l-3.8-1.6.6.3-1 2.1v52a42.4 42.4 0 0 0 11.4-6 8 8 0 0 0 1.2-5.7 5.4 5.4 0 0 1-1.6-4.4ZM331.7 34c-1.4-22.5-21.1-18.2-34-17.7-7.7.8-17 1.3-25.5 3.8-3 .9-3.4 3.4-2.2 5.7.4 1 1 1.7 3.5 3.7 3.7 3.1 4.5 3.7 6.9 3.7h6.8a40 40 0 0 1 14 2.3c6.3 2.4 14.4 5.5 12 12.4a8 8 0 0 0-1.3 4.8c-.2 7-.2 14.2-.1 21.2-.1 1.6.5 3.2 1.6 4.3.2 5.4-1 6.6-7.1 9.5a51 51 0 0 1-25.5 4.7c-3.1 1.1-6 3-8.2 5.5a10.7 10.7 0 0 0-3.4 8.2c-.2 9.3 18.5 5.3 21.9 5.7 12-1 26.8-2.1 39.5-3.8-.1-.5.2-1.3.8-2l.4-1.3c.4-21.5 0-49 0-70.7h-.1Z"/>
  <path id="rearCenter" fill="#3af1" stroke="#07a" d="M291 111.6c-2.8 0-12.5 1.3-18-.5-.5.8-1.4 1.3-2.4 1.3v30.3c1 0 2 .5 2.5 1.2 4.6-1.6 13.4-.6 18-.4 8.8.6 18 1.3 26.9 2.2v-36.4a824 824 0 0 1-27 2.3Zm-10.7.5V143m-65.8-31.2a36 36 0 0 1-18.8-5.5l-12.8-8c-4 16.5-4.3 42.2 0 58.6l12.8-8a36 36 0 0 1 18.8-5.6l56.1-.5v-30.4l-56-.6Zm117.5.5c0-.7-1.2-3.8-1.4-4.4l-12.6 1.4v36.4l12.8 1.5c0-.7 1.2-3.8 1.2-4.4v-30.5Z"/>
</svg>
